<svg width="35" height="45" viewBox="0 0 35 45" fill="none" xmlns="http://www.w3.org/2000/svg">
<path d="M5.20966 36.692C5.51366 36.74 5.78966 36.864 6.03766 37.064C6.29366 37.264 6.49366 37.512 6.63766 37.808C6.78966 38.104 6.86566 38.42 6.86566 38.756C6.86566 39.18 6.75766 39.564 6.54166 39.908C6.32566 40.244 6.00966 40.512 5.59366 40.712C5.18566 40.904 4.70166 41 4.14166 41H1.02166V32.636H4.02166C4.58966 32.636 5.07366 32.732 5.47366 32.924C5.87366 33.108 6.17366 33.36 6.37366 33.68C6.57366 34 6.67366 34.36 6.67366 34.76C6.67366 35.256 6.53766 35.668 6.26566 35.996C6.00166 36.316 5.64966 36.548 5.20966 36.692ZM2.11366 36.248H3.94966C4.46166 36.248 4.85766 36.128 5.13766 35.888C5.41766 35.648 5.55766 35.316 5.55766 34.892C5.55766 34.468 5.41766 34.136 5.13766 33.896C4.85766 33.656 4.45366 33.536 3.92566 33.536H2.11366V36.248ZM4.04566 40.1C4.58966 40.1 5.01366 39.972 5.31766 39.716C5.62166 39.46 5.77366 39.104 5.77366 38.648C5.77366 38.184 5.61366 37.82 5.29366 37.556C4.97366 37.284 4.54566 37.148 4.00966 37.148H2.11366V40.1H4.04566ZM7.97303 37.688C7.97303 37.016 8.10903 36.428 8.38103 35.924C8.65303 35.412 9.02503 35.016 9.49703 34.736C9.97703 34.456 10.509 34.316 11.093 34.316C11.669 34.316 12.169 34.44 12.593 34.688C13.017 34.936 13.333 35.248 13.541 35.624V34.424H14.645V41H13.541V39.776C13.325 40.16 13.001 40.48 12.569 40.736C12.145 40.984 11.649 41.108 11.081 41.108C10.497 41.108 9.96903 40.964 9.49703 40.676C9.02503 40.388 8.65303 39.984 8.38103 39.464C8.10903 38.944 7.97303 38.352 7.97303 37.688ZM13.541 37.7C13.541 37.204 13.441 36.772 13.241 36.404C13.041 36.036 12.769 35.756 12.425 35.564C12.089 35.364 11.717 35.264 11.309 35.264C10.901 35.264 10.529 35.36 10.193 35.552C9.85703 35.744 9.58903 36.024 9.38903 36.392C9.18903 36.76 9.08903 37.192 9.08903 37.688C9.08903 38.192 9.18903 38.632 9.38903 39.008C9.58903 39.376 9.85703 39.66 10.193 39.86C10.529 40.052 10.901 40.148 11.309 40.148C11.717 40.148 12.089 40.052 12.425 39.86C12.769 39.66 13.041 39.376 13.241 39.008C13.441 38.632 13.541 38.196 13.541 37.7ZM17.8224 35.324V39.2C17.8224 39.52 17.8904 39.748 18.0264 39.884C18.1624 40.012 18.3984 40.076 18.7344 40.076H19.5384V41H18.5544C17.9464 41 17.4904 40.86 17.1864 40.58C16.8824 40.3 16.7304 39.84 16.7304 39.2V35.324H15.8784V34.424H16.7304V32.768H17.8224V34.424H19.5384V35.324H17.8224ZM20.4535 37.7C20.4535 37.02 20.5895 36.428 20.8615 35.924C21.1335 35.412 21.5095 35.016 21.9895 34.736C22.4775 34.456 23.0335 34.316 23.6575 34.316C24.4655 34.316 25.1295 34.512 25.6495 34.904C26.1775 35.296 26.5255 35.84 26.6935 36.536H25.5175C25.4055 36.136 25.1855 35.82 24.8575 35.588C24.5375 35.356 24.1375 35.24 23.6575 35.24C23.0335 35.24 22.5295 35.456 22.1455 35.888C21.7615 36.312 21.5695 36.916 21.5695 37.7C21.5695 38.492 21.7615 39.104 22.1455 39.536C22.5295 39.968 23.0335 40.184 23.6575 40.184C24.1375 40.184 24.5375 40.072 24.8575 39.848C25.1775 39.624 25.3975 39.304 25.5175 38.888H26.6935C26.5175 39.56 26.1655 40.1 25.6375 40.508C25.1095 40.908 24.4495 41.108 23.6575 41.108C23.0335 41.108 22.4775 40.968 21.9895 40.688C21.5095 40.408 21.1335 40.012 20.8615 39.5C20.5895 38.988 20.4535 38.388 20.4535 37.7ZM31.4146 34.304C31.9106 34.304 32.3586 34.412 32.7586 34.628C33.1586 34.836 33.4706 35.152 33.6946 35.576C33.9266 36 34.0426 36.516 34.0426 37.124V41H32.9626V37.28C32.9626 36.624 32.7986 36.124 32.4706 35.78C32.1426 35.428 31.6946 35.252 31.1266 35.252C30.5506 35.252 30.0906 35.432 29.7466 35.792C29.4106 36.152 29.2426 36.676 29.2426 37.364V41H28.1506V32.12H29.2426V35.36C29.4586 35.024 29.7546 34.764 30.1306 34.58C30.5146 34.396 30.9426 34.304 31.4146 34.304Z" fill="#20BFAA"/>
<path d="M11.1525 9.25195L14.614 9.25195C15.1142 9.25195 15.5764 9.51878 15.8265 9.95195L17.5572 12.9497C17.8073 13.3829 17.8073 13.9166 17.5572 14.3497L15.8265 17.3475C15.5764 17.7807 15.1142 18.0475 14.614 18.0475L11.1525 18.0475C10.6523 18.0475 10.1901 17.7807 9.94004 17.3475L8.20928 14.3497C7.95919 13.9166 7.95919 13.3829 8.20928 12.9497L9.94004 9.95195C10.1901 9.51878 10.6523 9.25195 11.1525 9.25195Z" stroke="#20BFAA" stroke-width="1.2"/>
<path d="M19.2317 4.48547L22.6932 4.48547C23.1934 4.48547 23.6556 4.7523 23.9057 5.18547L25.6364 8.18324C25.8865 8.61641 25.8865 9.15008 25.6364 9.58325L23.9057 12.581C23.6556 13.0142 23.1934 13.281 22.6932 13.281L19.2317 13.281C18.7315 13.281 18.2694 13.0142 18.0193 12.581L16.2885 9.58325C16.0384 9.15008 16.0384 8.61641 16.2885 8.18325L18.0193 5.18547C18.2694 4.7523 18.7315 4.48547 19.2317 4.48547Z" stroke="#20BFAA" stroke-width="1.2"/>
<path d="M19.2316 14.0184L22.6931 14.0184C23.1933 14.0184 23.6555 14.2853 23.9056 14.7184L25.6363 17.7162C25.8864 18.1494 25.8864 18.683 25.6363 19.1162L23.9056 22.114C23.6555 22.5471 23.1933 22.814 22.6931 22.814L19.2316 22.814C18.7314 22.814 18.2692 22.5471 18.0191 22.114L16.2884 19.1162C16.0383 18.683 16.0383 18.1494 16.2884 17.7162L18.0191 14.7184C18.2692 14.2853 18.7314 14.0184 19.2316 14.0184Z" stroke="#20BFAA" stroke-width="1.2"/>
</svg>
