<svg width="63" height="63" viewBox="0 0 63 63" fill="none" xmlns="http://www.w3.org/2000/svg">
<g filter="url(#filter0_d_28_787)">
<rect x="4" width="55" height="55" rx="10" fill="#20BFAA"/>
</g>
<path d="M19.2097 41.692C19.5137 41.74 19.7897 41.864 20.0377 42.064C20.2937 42.264 20.4937 42.512 20.6377 42.808C20.7897 43.104 20.8657 43.42 20.8657 43.756C20.8657 44.18 20.7577 44.564 20.5417 44.908C20.3257 45.244 20.0097 45.512 19.5937 45.712C19.1857 45.904 18.7017 46 18.1417 46H15.0217V37.636H18.0217C18.5897 37.636 19.0737 37.732 19.4737 37.924C19.8737 38.108 20.1737 38.36 20.3737 38.68C20.5737 39 20.6737 39.36 20.6737 39.76C20.6737 40.256 20.5377 40.668 20.2657 40.996C20.0017 41.316 19.6497 41.548 19.2097 41.692ZM16.1137 41.248H17.9497C18.4617 41.248 18.8577 41.128 19.1377 40.888C19.4177 40.648 19.5577 40.316 19.5577 39.892C19.5577 39.468 19.4177 39.136 19.1377 38.896C18.8577 38.656 18.4537 38.536 17.9257 38.536H16.1137V41.248ZM18.0457 45.1C18.5897 45.1 19.0137 44.972 19.3177 44.716C19.6217 44.46 19.7737 44.104 19.7737 43.648C19.7737 43.184 19.6137 42.82 19.2937 42.556C18.9737 42.284 18.5457 42.148 18.0097 42.148H16.1137V45.1H18.0457ZM21.973 42.688C21.973 42.016 22.109 41.428 22.381 40.924C22.653 40.412 23.025 40.016 23.497 39.736C23.977 39.456 24.509 39.316 25.093 39.316C25.669 39.316 26.169 39.44 26.593 39.688C27.017 39.936 27.333 40.248 27.541 40.624V39.424H28.645V46H27.541V44.776C27.325 45.16 27.001 45.48 26.569 45.736C26.145 45.984 25.649 46.108 25.081 46.108C24.497 46.108 23.969 45.964 23.497 45.676C23.025 45.388 22.653 44.984 22.381 44.464C22.109 43.944 21.973 43.352 21.973 42.688ZM27.541 42.7C27.541 42.204 27.441 41.772 27.241 41.404C27.041 41.036 26.769 40.756 26.425 40.564C26.089 40.364 25.717 40.264 25.309 40.264C24.901 40.264 24.529 40.36 24.193 40.552C23.857 40.744 23.589 41.024 23.389 41.392C23.189 41.76 23.089 42.192 23.089 42.688C23.089 43.192 23.189 43.632 23.389 44.008C23.589 44.376 23.857 44.66 24.193 44.86C24.529 45.052 24.901 45.148 25.309 45.148C25.717 45.148 26.089 45.052 26.425 44.86C26.769 44.66 27.041 44.376 27.241 44.008C27.441 43.632 27.541 43.196 27.541 42.7ZM31.8224 40.324V44.2C31.8224 44.52 31.8904 44.748 32.0264 44.884C32.1624 45.012 32.3984 45.076 32.7344 45.076H33.5384V46H32.5544C31.9464 46 31.4904 45.86 31.1864 45.58C30.8824 45.3 30.7304 44.84 30.7304 44.2V40.324H29.8784V39.424H30.7304V37.768H31.8224V39.424H33.5384V40.324H31.8224ZM34.4535 42.7C34.4535 42.02 34.5895 41.428 34.8615 40.924C35.1335 40.412 35.5095 40.016 35.9895 39.736C36.4775 39.456 37.0335 39.316 37.6575 39.316C38.4655 39.316 39.1295 39.512 39.6495 39.904C40.1775 40.296 40.5255 40.84 40.6935 41.536H39.5175C39.4055 41.136 39.1855 40.82 38.8575 40.588C38.5375 40.356 38.1375 40.24 37.6575 40.24C37.0335 40.24 36.5295 40.456 36.1455 40.888C35.7615 41.312 35.5695 41.916 35.5695 42.7C35.5695 43.492 35.7615 44.104 36.1455 44.536C36.5295 44.968 37.0335 45.184 37.6575 45.184C38.1375 45.184 38.5375 45.072 38.8575 44.848C39.1775 44.624 39.3975 44.304 39.5175 43.888H40.6935C40.5175 44.56 40.1655 45.1 39.6375 45.508C39.1095 45.908 38.4495 46.108 37.6575 46.108C37.0335 46.108 36.4775 45.968 35.9895 45.688C35.5095 45.408 35.1335 45.012 34.8615 44.5C34.5895 43.988 34.4535 43.388 34.4535 42.7ZM45.4146 39.304C45.9106 39.304 46.3586 39.412 46.7586 39.628C47.1586 39.836 47.4706 40.152 47.6946 40.576C47.9266 41 48.0426 41.516 48.0426 42.124V46H46.9626V42.28C46.9626 41.624 46.7986 41.124 46.4706 40.78C46.1426 40.428 45.6946 40.252 45.1266 40.252C44.5506 40.252 44.0906 40.432 43.7466 40.792C43.4106 41.152 43.2426 41.676 43.2426 42.364V46H42.1506V37.12H43.2426V40.36C43.4586 40.024 43.7546 39.764 44.1306 39.58C44.5146 39.396 44.9426 39.304 45.4146 39.304Z" fill="white"/>
<path d="M25.1525 14.2519L28.614 14.2519C29.1142 14.2519 29.5764 14.5188 29.8265 14.9519L31.5572 17.9497C31.8073 18.3829 31.8073 18.9166 31.5572 19.3497L29.8265 22.3475C29.5764 22.7807 29.1142 23.0475 28.614 23.0475L25.1525 23.0475C24.6523 23.0475 24.1901 22.7807 23.94 22.3475L22.2093 19.3497C21.9592 18.9166 21.9592 18.3829 22.2093 17.9497L23.94 14.9519C24.1901 14.5188 24.6523 14.2519 25.1525 14.2519Z" stroke="white" stroke-width="1.2"/>
<path d="M33.2317 9.48547L36.6932 9.48547C37.1934 9.48547 37.6556 9.7523 37.9057 10.1855L39.6364 13.1832C39.8865 13.6164 39.8865 14.1501 39.6364 14.5832L37.9057 17.581C37.6556 18.0142 37.1934 18.281 36.6932 18.281L33.2317 18.281C32.7315 18.281 32.2694 18.0142 32.0193 17.581L30.2885 14.5832C30.0384 14.1501 30.0384 13.6164 30.2885 13.1832L32.0193 10.1855C32.2694 9.7523 32.7315 9.48547 33.2317 9.48547Z" stroke="white" stroke-width="1.2"/>
<path d="M33.2316 19.0184L36.6931 19.0184C37.1933 19.0184 37.6555 19.2853 37.9056 19.7184L39.6363 22.7162C39.8864 23.1494 39.8864 23.683 39.6363 24.1162L37.9056 27.114C37.6555 27.5471 37.1933 27.814 36.6931 27.814L33.2316 27.814C32.7314 27.814 32.2692 27.5471 32.0191 27.114L30.2884 24.1162C30.0383 23.683 30.0383 23.1494 30.2884 22.7162L32.0191 19.7184C32.2692 19.2853 32.7314 19.0184 33.2316 19.0184Z" stroke="white" stroke-width="1.2"/>
<defs>
<filter id="filter0_d_28_787" x="0" y="0" width="63" height="63" filterUnits="userSpaceOnUse" color-interpolation-filters="sRGB">
<feFlood flood-opacity="0" result="BackgroundImageFix"/>
<feColorMatrix in="SourceAlpha" type="matrix" values="0 0 0 0 0 0 0 0 0 0 0 0 0 0 0 0 0 0 127 0" result="hardAlpha"/>
<feOffset dy="4"/>
<feGaussianBlur stdDeviation="2"/>
<feComposite in2="hardAlpha" operator="out"/>
<feColorMatrix type="matrix" values="0 0 0 0 0 0 0 0 0 0 0 0 0 0 0 0 0 0 0.25 0"/>
<feBlend mode="normal" in2="BackgroundImageFix" result="effect1_dropShadow_28_787"/>
<feBlend mode="normal" in="SourceGraphic" in2="effect1_dropShadow_28_787" result="shape"/>
</filter>
</defs>
</svg>
