<svg width="136" height="43" viewBox="0 0 136 43" fill="none" xmlns="http://www.w3.org/2000/svg">
<g filter="url(#filter0_d_131_2503)">
<rect x="4.16968" y="0.749481" width="127" height="34" rx="17" fill="url(#paint0_linear_131_2503)"/>
</g>
<path d="M24.6879 17.4415C24.9919 17.4895 25.2679 17.6135 25.5159 17.8135C25.7719 18.0135 25.9719 18.2615 26.1159 18.5575C26.2679 18.8535 26.3439 19.1695 26.3439 19.5055C26.3439 19.9295 26.2359 20.3135 26.0199 20.6575C25.8039 20.9935 25.4879 21.2615 25.0719 21.4615C24.6639 21.6535 24.1799 21.7495 23.6199 21.7495H20.4999V13.3855H23.4999C24.0679 13.3855 24.5519 13.4815 24.9519 13.6735C25.3519 13.8575 25.6519 14.1095 25.8519 14.4295C26.0519 14.7495 26.1519 15.1095 26.1519 15.5095C26.1519 16.0055 26.0159 16.4175 25.7439 16.7455C25.4799 17.0655 25.1279 17.2975 24.6879 17.4415ZM21.5919 16.9975H23.4279C23.9399 16.9975 24.3359 16.8775 24.6159 16.6375C24.8959 16.3975 25.0359 16.0655 25.0359 15.6415C25.0359 15.2175 24.8959 14.8855 24.6159 14.6455C24.3359 14.4055 23.9319 14.2855 23.4039 14.2855H21.5919V16.9975ZM23.5239 20.8495C24.0679 20.8495 24.4919 20.7215 24.7959 20.4655C25.0999 20.2095 25.2519 19.8535 25.2519 19.3975C25.2519 18.9335 25.0919 18.5695 24.7719 18.3055C24.4519 18.0335 24.0239 17.8975 23.4879 17.8975H21.5919V20.8495H23.5239ZM31.6513 21.8335C30.8753 21.8335 30.1673 21.6535 29.5273 21.2935C28.8873 20.9255 28.3793 20.4175 28.0033 19.7695C27.6353 19.1135 27.4513 18.3775 27.4513 17.5615C27.4513 16.7455 27.6353 16.0135 28.0033 15.3655C28.3793 14.7095 28.8873 14.2015 29.5273 13.8415C30.1673 13.4735 30.8753 13.2895 31.6513 13.2895C32.4353 13.2895 33.1473 13.4735 33.7873 13.8415C34.4273 14.2015 34.9313 14.7055 35.2993 15.3535C35.6673 16.0015 35.8513 16.7375 35.8513 17.5615C35.8513 18.3855 35.6673 19.1215 35.2993 19.7695C34.9313 20.4175 34.4273 20.9255 33.7873 21.2935C33.1473 21.6535 32.4353 21.8335 31.6513 21.8335ZM31.6513 20.8855C32.2353 20.8855 32.7593 20.7495 33.2233 20.4775C33.6953 20.2055 34.0633 19.8175 34.3273 19.3135C34.5993 18.8095 34.7353 18.2255 34.7353 17.5615C34.7353 16.8895 34.5993 16.3055 34.3273 15.8095C34.0633 15.3055 33.6993 14.9175 33.2353 14.6455C32.7713 14.3735 32.2433 14.2375 31.6513 14.2375C31.0593 14.2375 30.5313 14.3735 30.0673 14.6455C29.6033 14.9175 29.2353 15.3055 28.9633 15.8095C28.6993 16.3055 28.5673 16.8895 28.5673 17.5615C28.5673 18.2255 28.6993 18.8095 28.9633 19.3135C29.2353 19.8175 29.6033 20.2055 30.0673 20.4775C30.5393 20.7495 31.0673 20.8855 31.6513 20.8855ZM41.0849 21.8335C40.3089 21.8335 39.6009 21.6535 38.9609 21.2935C38.3209 20.9255 37.8129 20.4175 37.4369 19.7695C37.0689 19.1135 36.8849 18.3775 36.8849 17.5615C36.8849 16.7455 37.0689 16.0135 37.4369 15.3655C37.8129 14.7095 38.3209 14.2015 38.9609 13.8415C39.6009 13.4735 40.3089 13.2895 41.0849 13.2895C41.8689 13.2895 42.5809 13.4735 43.2209 13.8415C43.8609 14.2015 44.3649 14.7055 44.7329 15.3535C45.1009 16.0015 45.2849 16.7375 45.2849 17.5615C45.2849 18.3855 45.1009 19.1215 44.7329 19.7695C44.3649 20.4175 43.8609 20.9255 43.2209 21.2935C42.5809 21.6535 41.8689 21.8335 41.0849 21.8335ZM41.0849 20.8855C41.6689 20.8855 42.1929 20.7495 42.6569 20.4775C43.1289 20.2055 43.4969 19.8175 43.7609 19.3135C44.0329 18.8095 44.1689 18.2255 44.1689 17.5615C44.1689 16.8895 44.0329 16.3055 43.7609 15.8095C43.4969 15.3055 43.1329 14.9175 42.6689 14.6455C42.2049 14.3735 41.6769 14.2375 41.0849 14.2375C40.4929 14.2375 39.9649 14.3735 39.5009 14.6455C39.0369 14.9175 38.6689 15.3055 38.3969 15.8095C38.1329 16.3055 38.0009 16.8895 38.0009 17.5615C38.0009 18.2255 38.1329 18.8095 38.3969 19.3135C38.6689 19.8175 39.0369 20.2055 39.5009 20.4775C39.9729 20.7495 40.5009 20.8855 41.0849 20.8855ZM51.2625 21.7495L47.8185 17.9335V21.7495H46.7265V13.3855H47.8185V17.2615L51.2745 13.3855H52.6545L48.8625 17.5735L52.6905 21.7495H51.2625ZM63.6853 21.7495H62.5933L58.2013 15.0895V21.7495H57.1093V13.3735H58.2013L62.5933 20.0215V13.3735H63.6853V21.7495ZM69.3388 21.8335C68.5628 21.8335 67.8548 21.6535 67.2148 21.2935C66.5748 20.9255 66.0668 20.4175 65.6908 19.7695C65.3228 19.1135 65.1388 18.3775 65.1388 17.5615C65.1388 16.7455 65.3228 16.0135 65.6908 15.3655C66.0668 14.7095 66.5748 14.2015 67.2148 13.8415C67.8548 13.4735 68.5628 13.2895 69.3388 13.2895C70.1228 13.2895 70.8348 13.4735 71.4748 13.8415C72.1148 14.2015 72.6188 14.7055 72.9868 15.3535C73.3548 16.0015 73.5388 16.7375 73.5388 17.5615C73.5388 18.3855 73.3548 19.1215 72.9868 19.7695C72.6188 20.4175 72.1148 20.9255 71.4748 21.2935C70.8348 21.6535 70.1228 21.8335 69.3388 21.8335ZM69.3388 20.8855C69.9228 20.8855 70.4468 20.7495 70.9108 20.4775C71.3828 20.2055 71.7508 19.8175 72.0148 19.3135C72.2868 18.8095 72.4228 18.2255 72.4228 17.5615C72.4228 16.8895 72.2868 16.3055 72.0148 15.8095C71.7508 15.3055 71.3868 14.9175 70.9228 14.6455C70.4588 14.3735 69.9308 14.2375 69.3388 14.2375C68.7468 14.2375 68.2188 14.3735 67.7548 14.6455C67.2908 14.9175 66.9228 15.3055 66.6508 15.8095C66.3868 16.3055 66.2548 16.8895 66.2548 17.5615C66.2548 18.2255 66.3868 18.8095 66.6508 19.3135C66.9228 19.8175 67.2908 20.2055 67.7548 20.4775C68.2268 20.7495 68.7548 20.8855 69.3388 20.8855ZM85.4924 13.3855L83.0684 21.7495H81.8444L79.9004 15.0175L77.8844 21.7495L76.6724 21.7615L74.3324 13.3855H75.4964L77.3204 20.4775L79.3364 13.3855H80.5604L82.4804 20.4535L84.3164 13.3855H85.4924Z" fill="white"/>
<path d="M114 23.8824L119.402 17.8697L114 11.8571" stroke="white" stroke-width="2" stroke-linecap="round" stroke-linejoin="round"/>
<defs>
<filter id="filter0_d_131_2503" x="0.169678" y="0.749481" width="135" height="42" filterUnits="userSpaceOnUse" color-interpolation-filters="sRGB">
<feFlood flood-opacity="0" result="BackgroundImageFix"/>
<feColorMatrix in="SourceAlpha" type="matrix" values="0 0 0 0 0 0 0 0 0 0 0 0 0 0 0 0 0 0 127 0" result="hardAlpha"/>
<feOffset dy="4"/>
<feGaussianBlur stdDeviation="2"/>
<feComposite in2="hardAlpha" operator="out"/>
<feColorMatrix type="matrix" values="0 0 0 0 0 0 0 0 0 0 0 0 0 0 0 0 0 0 0.25 0"/>
<feBlend mode="normal" in2="BackgroundImageFix" result="effect1_dropShadow_131_2503"/>
<feBlend mode="normal" in="SourceGraphic" in2="effect1_dropShadow_131_2503" result="shape"/>
</filter>
<linearGradient id="paint0_linear_131_2503" x1="4.16968" y1="17.7495" x2="131.17" y2="17.7495" gradientUnits="userSpaceOnUse">
<stop stop-color="#20BFAA"/>
<stop offset="0.57378" stop-color="#12E7CB"/>
</linearGradient>
</defs>
</svg>
