<svg width="37" height="45" viewBox="0 0 37 45" fill="none" xmlns="http://www.w3.org/2000/svg">
<path d="M15.52 2.84001L10.13 7.04001C9.23 7.74001 8.5 9.23001 8.5 10.36V17.77C8.5 20.09 10.39 21.99 12.71 21.99H24.29C26.61 21.99 28.5 20.09 28.5 17.78V10.5C28.5 9.29001 27.69 7.74001 26.7 7.05001L20.52 2.72001C19.12 1.74001 16.87 1.79001 15.52 2.84001Z" stroke="#20BFAA" stroke-width="1.5" stroke-linecap="round" stroke-linejoin="round"/>
<path d="M18.5 17.99V14.99" stroke="#20BFAA" stroke-width="1.5" stroke-linecap="round" stroke-linejoin="round"/>
<path d="M7.868 32.636V41H6.776V37.208H2.516V41H1.424V32.636H2.516V36.308H6.776V32.636H7.868ZM12.6006 41.108C11.9846 41.108 11.4246 40.968 10.9206 40.688C10.4246 40.408 10.0326 40.012 9.74459 39.5C9.46459 38.98 9.32459 38.38 9.32459 37.7C9.32459 37.028 9.46859 36.436 9.75659 35.924C10.0526 35.404 10.4526 35.008 10.9566 34.736C11.4606 34.456 12.0246 34.316 12.6486 34.316C13.2726 34.316 13.8366 34.456 14.3406 34.736C14.8446 35.008 15.2406 35.4 15.5286 35.912C15.8246 36.424 15.9726 37.02 15.9726 37.7C15.9726 38.38 15.8206 38.98 15.5166 39.5C15.2206 40.012 14.8166 40.408 14.3046 40.688C13.7926 40.968 13.2246 41.108 12.6006 41.108ZM12.6006 40.148C12.9926 40.148 13.3606 40.056 13.7046 39.872C14.0486 39.688 14.3246 39.412 14.5326 39.044C14.7486 38.676 14.8566 38.228 14.8566 37.7C14.8566 37.172 14.7526 36.724 14.5446 36.356C14.3366 35.988 14.0646 35.716 13.7286 35.54C13.3926 35.356 13.0286 35.264 12.6366 35.264C12.2366 35.264 11.8686 35.356 11.5326 35.54C11.2046 35.716 10.9406 35.988 10.7406 36.356C10.5406 36.724 10.4406 37.172 10.4406 37.7C10.4406 38.236 10.5366 38.688 10.7286 39.056C10.9286 39.424 11.1926 39.7 11.5206 39.884C11.8486 40.06 12.2086 40.148 12.6006 40.148ZM25.3164 34.304C25.8284 34.304 26.2844 34.412 26.6844 34.628C27.0844 34.836 27.4004 35.152 27.6324 35.576C27.8644 36 27.9804 36.516 27.9804 37.124V41H26.9004V37.28C26.9004 36.624 26.7364 36.124 26.4084 35.78C26.0884 35.428 25.6524 35.252 25.1004 35.252C24.5324 35.252 24.0804 35.436 23.7444 35.804C23.4084 36.164 23.2404 36.688 23.2404 37.376V41H22.1604V37.28C22.1604 36.624 21.9964 36.124 21.6684 35.78C21.3484 35.428 20.9124 35.252 20.3604 35.252C19.7924 35.252 19.3404 35.436 19.0044 35.804C18.6684 36.164 18.5004 36.688 18.5004 37.376V41H17.4084V34.424H18.5004V35.372C18.7164 35.028 19.0044 34.764 19.3644 34.58C19.7324 34.396 20.1364 34.304 20.5764 34.304C21.1284 34.304 21.6164 34.428 22.0404 34.676C22.4644 34.924 22.7804 35.288 22.9884 35.768C23.1724 35.304 23.4764 34.944 23.9004 34.688C24.3244 34.432 24.7964 34.304 25.3164 34.304ZM35.7717 37.46C35.7717 37.668 35.7597 37.888 35.7357 38.12H30.4797C30.5197 38.768 30.7397 39.276 31.1397 39.644C31.5477 40.004 32.0397 40.184 32.6157 40.184C33.0877 40.184 33.4797 40.076 33.7917 39.86C34.1117 39.636 34.3357 39.34 34.4637 38.972H35.6397C35.4637 39.604 35.1117 40.12 34.5837 40.52C34.0557 40.912 33.3997 41.108 32.6157 41.108C31.9917 41.108 31.4317 40.968 30.9357 40.688C30.4477 40.408 30.0637 40.012 29.7837 39.5C29.5037 38.98 29.3637 38.38 29.3637 37.7C29.3637 37.02 29.4997 36.424 29.7717 35.912C30.0437 35.4 30.4237 35.008 30.9117 34.736C31.4077 34.456 31.9757 34.316 32.6157 34.316C33.2397 34.316 33.7917 34.452 34.2717 34.724C34.7517 34.996 35.1197 35.372 35.3757 35.852C35.6397 36.324 35.7717 36.86 35.7717 37.46ZM34.6437 37.232C34.6437 36.816 34.5517 36.46 34.3677 36.164C34.1837 35.86 33.9317 35.632 33.6117 35.48C33.2997 35.32 32.9517 35.24 32.5677 35.24C32.0157 35.24 31.5437 35.416 31.1517 35.768C30.7677 36.12 30.5477 36.608 30.4917 37.232H34.6437Z" fill="#20BFAA"/>
</svg>
