<svg width="63" height="63" viewBox="0 0 63 63" fill="none" xmlns="http://www.w3.org/2000/svg">
<g filter="url(#filter0_d_28_672)">
<rect x="4" width="55" height="55" rx="10" fill="#20BFAA"/>
</g>
<g filter="url(#filter1_d_28_672)">
<rect x="4" width="55" height="55" rx="10" fill="#20BFAA"/>
</g>
<path d="M29.02 7.84001L23.63 12.04C22.73 12.74 22 14.23 22 15.36V22.77C22 25.09 23.89 26.99 26.21 26.99H37.79C40.11 26.99 42 25.09 42 22.78V15.5C42 14.29 41.19 12.74 40.2 12.05L34.02 7.72001C32.62 6.74001 30.37 6.79001 29.02 7.84001Z" stroke="white" stroke-width="1.5" stroke-linecap="round" stroke-linejoin="round"/>
<path d="M32 22.99V19.99" stroke="white" stroke-width="1.5" stroke-linecap="round" stroke-linejoin="round"/>
<path d="M21.368 37.636V46H20.276V42.208H16.016V46H14.924V37.636H16.016V41.308H20.276V37.636H21.368ZM26.1006 46.108C25.4846 46.108 24.9246 45.968 24.4206 45.688C23.9246 45.408 23.5326 45.012 23.2446 44.5C22.9646 43.98 22.8246 43.38 22.8246 42.7C22.8246 42.028 22.9686 41.436 23.2566 40.924C23.5526 40.404 23.9526 40.008 24.4566 39.736C24.9606 39.456 25.5246 39.316 26.1486 39.316C26.7726 39.316 27.3366 39.456 27.8406 39.736C28.3446 40.008 28.7406 40.4 29.0286 40.912C29.3246 41.424 29.4726 42.02 29.4726 42.7C29.4726 43.38 29.3206 43.98 29.0166 44.5C28.7206 45.012 28.3166 45.408 27.8046 45.688C27.2926 45.968 26.7246 46.108 26.1006 46.108ZM26.1006 45.148C26.4926 45.148 26.8606 45.056 27.2046 44.872C27.5486 44.688 27.8246 44.412 28.0326 44.044C28.2486 43.676 28.3566 43.228 28.3566 42.7C28.3566 42.172 28.2526 41.724 28.0446 41.356C27.8366 40.988 27.5646 40.716 27.2286 40.54C26.8926 40.356 26.5286 40.264 26.1366 40.264C25.7366 40.264 25.3686 40.356 25.0326 40.54C24.7046 40.716 24.4406 40.988 24.2406 41.356C24.0406 41.724 23.9406 42.172 23.9406 42.7C23.9406 43.236 24.0366 43.688 24.2286 44.056C24.4286 44.424 24.6926 44.7 25.0206 44.884C25.3486 45.06 25.7086 45.148 26.1006 45.148ZM38.8164 39.304C39.3284 39.304 39.7844 39.412 40.1844 39.628C40.5844 39.836 40.9004 40.152 41.1324 40.576C41.3644 41 41.4804 41.516 41.4804 42.124V46H40.4004V42.28C40.4004 41.624 40.2364 41.124 39.9084 40.78C39.5884 40.428 39.1524 40.252 38.6004 40.252C38.0324 40.252 37.5804 40.436 37.2444 40.804C36.9084 41.164 36.7404 41.688 36.7404 42.376V46H35.6604V42.28C35.6604 41.624 35.4964 41.124 35.1684 40.78C34.8484 40.428 34.4124 40.252 33.8604 40.252C33.2924 40.252 32.8404 40.436 32.5044 40.804C32.1684 41.164 32.0004 41.688 32.0004 42.376V46H30.9084V39.424H32.0004V40.372C32.2164 40.028 32.5044 39.764 32.8644 39.58C33.2324 39.396 33.6364 39.304 34.0764 39.304C34.6284 39.304 35.1164 39.428 35.5404 39.676C35.9644 39.924 36.2804 40.288 36.4884 40.768C36.6724 40.304 36.9764 39.944 37.4004 39.688C37.8244 39.432 38.2964 39.304 38.8164 39.304ZM49.2717 42.46C49.2717 42.668 49.2597 42.888 49.2357 43.12H43.9797C44.0197 43.768 44.2397 44.276 44.6397 44.644C45.0477 45.004 45.5397 45.184 46.1157 45.184C46.5877 45.184 46.9797 45.076 47.2917 44.86C47.6117 44.636 47.8357 44.34 47.9637 43.972H49.1397C48.9637 44.604 48.6117 45.12 48.0837 45.52C47.5557 45.912 46.8997 46.108 46.1157 46.108C45.4917 46.108 44.9317 45.968 44.4357 45.688C43.9477 45.408 43.5637 45.012 43.2837 44.5C43.0037 43.98 42.8637 43.38 42.8637 42.7C42.8637 42.02 42.9997 41.424 43.2717 40.912C43.5437 40.4 43.9237 40.008 44.4117 39.736C44.9077 39.456 45.4757 39.316 46.1157 39.316C46.7397 39.316 47.2917 39.452 47.7717 39.724C48.2517 39.996 48.6197 40.372 48.8757 40.852C49.1397 41.324 49.2717 41.86 49.2717 42.46ZM48.1437 42.232C48.1437 41.816 48.0517 41.46 47.8677 41.164C47.6837 40.86 47.4317 40.632 47.1117 40.48C46.7997 40.32 46.4517 40.24 46.0677 40.24C45.5157 40.24 45.0437 40.416 44.6517 40.768C44.2677 41.12 44.0477 41.608 43.9917 42.232H48.1437Z" fill="white"/>
<defs>
<filter id="filter0_d_28_672" x="0" y="0" width="63" height="63" filterUnits="userSpaceOnUse" color-interpolation-filters="sRGB">
<feFlood flood-opacity="0" result="BackgroundImageFix"/>
<feColorMatrix in="SourceAlpha" type="matrix" values="0 0 0 0 0 0 0 0 0 0 0 0 0 0 0 0 0 0 127 0" result="hardAlpha"/>
<feOffset dy="4"/>
<feGaussianBlur stdDeviation="2"/>
<feComposite in2="hardAlpha" operator="out"/>
<feColorMatrix type="matrix" values="0 0 0 0 0 0 0 0 0 0 0 0 0 0 0 0 0 0 0.25 0"/>
<feBlend mode="normal" in2="BackgroundImageFix" result="effect1_dropShadow_28_672"/>
<feBlend mode="normal" in="SourceGraphic" in2="effect1_dropShadow_28_672" result="shape"/>
</filter>
<filter id="filter1_d_28_672" x="0" y="0" width="63" height="63" filterUnits="userSpaceOnUse" color-interpolation-filters="sRGB">
<feFlood flood-opacity="0" result="BackgroundImageFix"/>
<feColorMatrix in="SourceAlpha" type="matrix" values="0 0 0 0 0 0 0 0 0 0 0 0 0 0 0 0 0 0 127 0" result="hardAlpha"/>
<feOffset dy="4"/>
<feGaussianBlur stdDeviation="2"/>
<feComposite in2="hardAlpha" operator="out"/>
<feColorMatrix type="matrix" values="0 0 0 0 0 0 0 0 0 0 0 0 0 0 0 0 0 0 0.25 0"/>
<feBlend mode="normal" in2="BackgroundImageFix" result="effect1_dropShadow_28_672"/>
<feBlend mode="normal" in="SourceGraphic" in2="effect1_dropShadow_28_672" result="shape"/>
</filter>
</defs>
</svg>
