<svg width="63" height="63" viewBox="0 0 63 63" fill="none" xmlns="http://www.w3.org/2000/svg">
<g filter="url(#filter0_d_28_1286)">
<rect x="4" width="55" height="55" rx="10" fill="#20BFAA"/>
</g>
<path d="M19.2473 46.084C18.4713 46.084 17.7633 45.904 17.1233 45.544C16.4833 45.176 15.9753 44.668 15.5993 44.02C15.2313 43.364 15.0473 42.628 15.0473 41.812C15.0473 40.996 15.2313 40.264 15.5993 39.616C15.9753 38.96 16.4833 38.452 17.1233 38.092C17.7633 37.724 18.4713 37.54 19.2473 37.54C20.0313 37.54 20.7433 37.724 21.3833 38.092C22.0233 38.452 22.5273 38.956 22.8953 39.604C23.2633 40.252 23.4473 40.988 23.4473 41.812C23.4473 42.636 23.2633 43.372 22.8953 44.02C22.5273 44.668 22.0233 45.176 21.3833 45.544C20.7433 45.904 20.0313 46.084 19.2473 46.084ZM19.2473 45.136C19.8313 45.136 20.3553 45 20.8193 44.728C21.2913 44.456 21.6593 44.068 21.9233 43.564C22.1953 43.06 22.3313 42.476 22.3313 41.812C22.3313 41.14 22.1953 40.556 21.9233 40.06C21.6593 39.556 21.2953 39.168 20.8313 38.896C20.3673 38.624 19.8393 38.488 19.2473 38.488C18.6553 38.488 18.1273 38.624 17.6633 38.896C17.1993 39.168 16.8313 39.556 16.5593 40.06C16.2953 40.556 16.1633 41.14 16.1633 41.812C16.1633 42.476 16.2953 43.06 16.5593 43.564C16.8313 44.068 17.1993 44.456 17.6633 44.728C18.1353 45 18.6633 45.136 19.2473 45.136ZM25.9808 40.492C26.1728 40.116 26.4448 39.824 26.7968 39.616C27.1568 39.408 27.5928 39.304 28.1048 39.304V40.432H27.8168C26.5928 40.432 25.9808 41.096 25.9808 42.424V46H24.8888V39.424H25.9808V40.492ZM28.9574 42.688C28.9574 42.016 29.0934 41.428 29.3654 40.924C29.6374 40.412 30.0094 40.016 30.4814 39.736C30.9614 39.456 31.4974 39.316 32.0894 39.316C32.6014 39.316 33.0774 39.436 33.5174 39.676C33.9574 39.908 34.2934 40.216 34.5254 40.6V37.12H35.6294V46H34.5254V44.764C34.3094 45.156 33.9894 45.48 33.5654 45.736C33.1414 45.984 32.6454 46.108 32.0774 46.108C31.4934 46.108 30.9614 45.964 30.4814 45.676C30.0094 45.388 29.6374 44.984 29.3654 44.464C29.0934 43.944 28.9574 43.352 28.9574 42.688ZM34.5254 42.7C34.5254 42.204 34.4254 41.772 34.2254 41.404C34.0254 41.036 33.7534 40.756 33.4094 40.564C33.0734 40.364 32.7014 40.264 32.2934 40.264C31.8854 40.264 31.5134 40.36 31.1774 40.552C30.8414 40.744 30.5734 41.024 30.3734 41.392C30.1734 41.76 30.0734 42.192 30.0734 42.688C30.0734 43.192 30.1734 43.632 30.3734 44.008C30.5734 44.376 30.8414 44.66 31.1774 44.86C31.5134 45.052 31.8854 45.148 32.2934 45.148C32.7014 45.148 33.0734 45.052 33.4094 44.86C33.7534 44.66 34.0254 44.376 34.2254 44.008C34.4254 43.632 34.5254 43.196 34.5254 42.7ZM43.4748 42.46C43.4748 42.668 43.4628 42.888 43.4388 43.12H38.1828C38.2228 43.768 38.4428 44.276 38.8428 44.644C39.2508 45.004 39.7428 45.184 40.3188 45.184C40.7908 45.184 41.1828 45.076 41.4948 44.86C41.8148 44.636 42.0388 44.34 42.1668 43.972H43.3428C43.1668 44.604 42.8148 45.12 42.2868 45.52C41.7588 45.912 41.1028 46.108 40.3188 46.108C39.6948 46.108 39.1348 45.968 38.6388 45.688C38.1508 45.408 37.7668 45.012 37.4868 44.5C37.2068 43.98 37.0668 43.38 37.0668 42.7C37.0668 42.02 37.2028 41.424 37.4748 40.912C37.7468 40.4 38.1268 40.008 38.6148 39.736C39.1108 39.456 39.6788 39.316 40.3188 39.316C40.9428 39.316 41.4948 39.452 41.9748 39.724C42.4548 39.996 42.8228 40.372 43.0788 40.852C43.3428 41.324 43.4748 41.86 43.4748 42.46ZM42.3468 42.232C42.3468 41.816 42.2548 41.46 42.0708 41.164C41.8868 40.86 41.6348 40.632 41.3148 40.48C41.0028 40.32 40.6548 40.24 40.2708 40.24C39.7188 40.24 39.2468 40.416 38.8548 40.768C38.4708 41.12 38.2508 41.608 38.1948 42.232H42.3468ZM46.0082 40.492C46.2002 40.116 46.4722 39.824 46.8242 39.616C47.1842 39.408 47.6202 39.304 48.1322 39.304V40.432H47.8442C46.6202 40.432 46.0082 41.096 46.0082 42.424V46H44.9162V39.424H46.0082V40.492Z" fill="white"/>
<path d="M22.9717 26.9688C22.8467 26.9688 22.7217 26.9219 22.628 26.8125C22.5342 26.7188 22.4873 26.5937 22.503 26.4531L23.4873 11.3281C23.503 11.0781 23.7061 10.8906 23.9561 10.8906H28.0811V10.8281C28.0811 9.79688 28.4873 8.84375 29.2061 8.10937C29.9405 7.40625 30.8936 7 31.9248 7C34.0342 7 35.7686 8.71875 35.7686 10.8438C35.7686 10.8594 35.753 10.875 35.753 10.8906V10.9062H39.8936C40.1436 10.9062 40.3467 11.0937 40.3623 11.3437L41.3311 26.3594C41.3467 26.4063 41.3467 26.4375 41.3467 26.4844C41.3311 26.75 41.128 26.9688 40.8623 26.9688H22.9717ZM23.4717 26.0313H40.3623L39.4561 11.8438H35.753V12.9688H35.7686C36.0186 13.1406 36.1592 13.3906 36.1592 13.6719C36.1592 14.1563 35.7686 14.5469 35.2842 14.5469C34.7998 14.5469 34.4092 14.1563 34.4092 13.6719C34.4092 13.3906 34.5498 13.1406 34.7998 12.9688H34.8155V11.8438H29.0186V12.9688H29.0342C29.2842 13.1406 29.4248 13.3906 29.4248 13.6719C29.4248 14.1563 29.0342 14.5469 28.5498 14.5469C28.0655 14.5469 27.6748 14.1563 27.6748 13.6719C27.6748 13.3906 27.8155 13.1406 28.0655 12.9688H28.0811V11.8438H24.378L23.4717 26.0313ZM31.9248 7.95312C30.3311 7.95312 29.0186 9.25 29.0186 10.8594V10.9219H34.8467L34.8311 10.8906V10.8594C34.8311 9.25 33.5186 7.95312 31.9248 7.95312Z" fill="white"/>
<defs>
<filter id="filter0_d_28_1286" x="0" y="0" width="63" height="63" filterUnits="userSpaceOnUse" color-interpolation-filters="sRGB">
<feFlood flood-opacity="0" result="BackgroundImageFix"/>
<feColorMatrix in="SourceAlpha" type="matrix" values="0 0 0 0 0 0 0 0 0 0 0 0 0 0 0 0 0 0 127 0" result="hardAlpha"/>
<feOffset dy="4"/>
<feGaussianBlur stdDeviation="2"/>
<feComposite in2="hardAlpha" operator="out"/>
<feColorMatrix type="matrix" values="0 0 0 0 0 0 0 0 0 0 0 0 0 0 0 0 0 0 0.25 0"/>
<feBlend mode="normal" in2="BackgroundImageFix" result="effect1_dropShadow_28_1286"/>
<feBlend mode="normal" in="SourceGraphic" in2="effect1_dropShadow_28_1286" result="shape"/>
</filter>
</defs>
</svg>
