<svg width="35" height="45" viewBox="0 0 35 45" fill="none" xmlns="http://www.w3.org/2000/svg">
<path d="M5.24725 41.084C4.47125 41.084 3.76325 40.904 3.12325 40.544C2.48325 40.176 1.97525 39.668 1.59925 39.02C1.23125 38.364 1.04725 37.628 1.04725 36.812C1.04725 35.996 1.23125 35.264 1.59925 34.616C1.97525 33.96 2.48325 33.452 3.12325 33.092C3.76325 32.724 4.47125 32.54 5.24725 32.54C6.03125 32.54 6.74325 32.724 7.38325 33.092C8.02325 33.452 8.52725 33.956 8.89525 34.604C9.26325 35.252 9.44725 35.988 9.44725 36.812C9.44725 37.636 9.26325 38.372 8.89525 39.02C8.52725 39.668 8.02325 40.176 7.38325 40.544C6.74325 40.904 6.03125 41.084 5.24725 41.084ZM5.24725 40.136C5.83125 40.136 6.35525 40 6.81925 39.728C7.29125 39.456 7.65925 39.068 7.92325 38.564C8.19525 38.06 8.33125 37.476 8.33125 36.812C8.33125 36.14 8.19525 35.556 7.92325 35.06C7.65925 34.556 7.29525 34.168 6.83125 33.896C6.36725 33.624 5.83925 33.488 5.24725 33.488C4.65525 33.488 4.12725 33.624 3.66325 33.896C3.19925 34.168 2.83125 34.556 2.55925 35.06C2.29525 35.556 2.16325 36.14 2.16325 36.812C2.16325 37.476 2.29525 38.06 2.55925 38.564C2.83125 39.068 3.19925 39.456 3.66325 39.728C4.13525 40 4.66325 40.136 5.24725 40.136ZM11.9808 35.492C12.1728 35.116 12.4448 34.824 12.7968 34.616C13.1568 34.408 13.5928 34.304 14.1048 34.304V35.432H13.8168C12.5928 35.432 11.9808 36.096 11.9808 37.424V41H10.8888V34.424H11.9808V35.492ZM14.9574 37.688C14.9574 37.016 15.0934 36.428 15.3654 35.924C15.6374 35.412 16.0094 35.016 16.4814 34.736C16.9614 34.456 17.4974 34.316 18.0894 34.316C18.6014 34.316 19.0774 34.436 19.5174 34.676C19.9574 34.908 20.2934 35.216 20.5254 35.6V32.12H21.6294V41H20.5254V39.764C20.3094 40.156 19.9894 40.48 19.5654 40.736C19.1414 40.984 18.6454 41.108 18.0774 41.108C17.4934 41.108 16.9614 40.964 16.4814 40.676C16.0094 40.388 15.6374 39.984 15.3654 39.464C15.0934 38.944 14.9574 38.352 14.9574 37.688ZM20.5254 37.7C20.5254 37.204 20.4254 36.772 20.2254 36.404C20.0254 36.036 19.7534 35.756 19.4094 35.564C19.0734 35.364 18.7014 35.264 18.2934 35.264C17.8854 35.264 17.5134 35.36 17.1774 35.552C16.8414 35.744 16.5734 36.024 16.3734 36.392C16.1734 36.76 16.0734 37.192 16.0734 37.688C16.0734 38.192 16.1734 38.632 16.3734 39.008C16.5734 39.376 16.8414 39.66 17.1774 39.86C17.5134 40.052 17.8854 40.148 18.2934 40.148C18.7014 40.148 19.0734 40.052 19.4094 39.86C19.7534 39.66 20.0254 39.376 20.2254 39.008C20.4254 38.632 20.5254 38.196 20.5254 37.7ZM29.4748 37.46C29.4748 37.668 29.4628 37.888 29.4388 38.12H24.1828C24.2228 38.768 24.4428 39.276 24.8428 39.644C25.2508 40.004 25.7428 40.184 26.3188 40.184C26.7908 40.184 27.1828 40.076 27.4948 39.86C27.8148 39.636 28.0388 39.34 28.1668 38.972H29.3428C29.1668 39.604 28.8148 40.12 28.2868 40.52C27.7588 40.912 27.1028 41.108 26.3188 41.108C25.6948 41.108 25.1348 40.968 24.6388 40.688C24.1508 40.408 23.7668 40.012 23.4868 39.5C23.2068 38.98 23.0668 38.38 23.0668 37.7C23.0668 37.02 23.2028 36.424 23.4748 35.912C23.7468 35.4 24.1268 35.008 24.6148 34.736C25.1108 34.456 25.6788 34.316 26.3188 34.316C26.9428 34.316 27.4948 34.452 27.9748 34.724C28.4548 34.996 28.8228 35.372 29.0788 35.852C29.3428 36.324 29.4748 36.86 29.4748 37.46ZM28.3468 37.232C28.3468 36.816 28.2548 36.46 28.0708 36.164C27.8868 35.86 27.6348 35.632 27.3148 35.48C27.0028 35.32 26.6548 35.24 26.2708 35.24C25.7188 35.24 25.2468 35.416 24.8548 35.768C24.4708 36.12 24.2508 36.608 24.1948 37.232H28.3468ZM32.0082 35.492C32.2002 35.116 32.4722 34.824 32.8242 34.616C33.1842 34.408 33.6202 34.304 34.1322 34.304V35.432H33.8442C32.6202 35.432 32.0082 36.096 32.0082 37.424V41H30.9162V34.424H32.0082V35.492Z" fill="#20BFAA"/>
<path d="M8.97171 21.9688C8.84671 21.9688 8.72171 21.9219 8.62796 21.8125C8.53421 21.7188 8.48734 21.5937 8.50296 21.4531L9.48734 6.32812C9.50296 6.07812 9.70609 5.89062 9.95609 5.89062H14.0811V5.82812C14.0811 4.79688 14.4873 3.84375 15.2061 3.10937C15.9405 2.40625 16.8936 2 17.9248 2C20.0342 2 21.7686 3.71875 21.7686 5.84375C21.7686 5.85938 21.753 5.875 21.753 5.89062V5.90625H25.8936C26.1436 5.90625 26.3467 6.09375 26.3623 6.34375L27.3311 21.3594C27.3467 21.4063 27.3467 21.4375 27.3467 21.4844C27.3311 21.75 27.128 21.9688 26.8623 21.9688H8.97171ZM9.47171 21.0313H26.3623L25.4561 6.84375H21.753V7.96875H21.7686C22.0186 8.14063 22.1592 8.39063 22.1592 8.67188C22.1592 9.15625 21.7686 9.54688 21.2842 9.54688C20.7998 9.54688 20.4092 9.15625 20.4092 8.67188C20.4092 8.39063 20.5498 8.14063 20.7998 7.96875H20.8155V6.84375H15.0186V7.96875H15.0342C15.2842 8.14063 15.4248 8.39063 15.4248 8.67188C15.4248 9.15625 15.0342 9.54688 14.5498 9.54688C14.0655 9.54688 13.6748 9.15625 13.6748 8.67188C13.6748 8.39063 13.8155 8.14063 14.0655 7.96875H14.0811V6.84375H10.378L9.47171 21.0313ZM17.9248 2.95312C16.3311 2.95312 15.0186 4.25 15.0186 5.85937V5.92188H20.8467L20.8311 5.89062V5.85937C20.8311 4.25 19.5186 2.95312 17.9248 2.95312Z" fill="#20BFAA"/>
</svg>
