<svg width="63" height="63" viewBox="0 0 63 63" fill="none" xmlns="http://www.w3.org/2000/svg">
<g filter="url(#filter0_d_28_712)">
<rect x="4" width="55" height="55" rx="10" fill="#20BFAA"/>
</g>
<path d="M14.7426 40.084C14.7426 40.78 14.5026 41.36 14.0226 41.824C13.5506 42.28 12.8266 42.508 11.8506 42.508H10.2426V46H9.15056V37.636H11.8506C12.7946 37.636 13.5106 37.864 13.9986 38.32C14.4946 38.776 14.7426 39.364 14.7426 40.084ZM11.8506 41.608C12.4586 41.608 12.9066 41.476 13.1946 41.212C13.4826 40.948 13.6266 40.572 13.6266 40.084C13.6266 39.052 13.0346 38.536 11.8506 38.536H10.2426V41.608H11.8506ZM17.1918 40.492C17.3838 40.116 17.6558 39.824 18.0078 39.616C18.3678 39.408 18.8038 39.304 19.3158 39.304V40.432H19.0278C17.8038 40.432 17.1918 41.096 17.1918 42.424V46H16.0998V39.424H17.1918V40.492ZM23.4443 46.108C22.8283 46.108 22.2683 45.968 21.7643 45.688C21.2683 45.408 20.8763 45.012 20.5883 44.5C20.3083 43.98 20.1683 43.38 20.1683 42.7C20.1683 42.028 20.3123 41.436 20.6003 40.924C20.8963 40.404 21.2963 40.008 21.8003 39.736C22.3043 39.456 22.8683 39.316 23.4923 39.316C24.1163 39.316 24.6803 39.456 25.1843 39.736C25.6883 40.008 26.0843 40.4 26.3723 40.912C26.6683 41.424 26.8163 42.02 26.8163 42.7C26.8163 43.38 26.6643 43.98 26.3603 44.5C26.0643 45.012 25.6603 45.408 25.1483 45.688C24.6363 45.968 24.0683 46.108 23.4443 46.108ZM23.4443 45.148C23.8363 45.148 24.2043 45.056 24.5483 44.872C24.8923 44.688 25.1683 44.412 25.3763 44.044C25.5923 43.676 25.7003 43.228 25.7003 42.7C25.7003 42.172 25.5963 41.724 25.3883 41.356C25.1803 40.988 24.9083 40.716 24.5723 40.54C24.2363 40.356 23.8723 40.264 23.4803 40.264C23.0803 40.264 22.7123 40.356 22.3763 40.54C22.0483 40.716 21.7843 40.988 21.5843 41.356C21.3843 41.724 21.2843 42.172 21.2843 42.7C21.2843 43.236 21.3803 43.688 21.5723 44.056C21.7723 44.424 22.0363 44.7 22.3643 44.884C22.6923 45.06 23.0523 45.148 23.4443 45.148ZM27.8441 42.688C27.8441 42.016 27.9801 41.428 28.2521 40.924C28.5241 40.412 28.8961 40.016 29.3681 39.736C29.8481 39.456 30.3841 39.316 30.9761 39.316C31.4881 39.316 31.9641 39.436 32.4041 39.676C32.8441 39.908 33.1801 40.216 33.4121 40.6V37.12H34.5161V46H33.4121V44.764C33.1961 45.156 32.8761 45.48 32.4521 45.736C32.0281 45.984 31.5321 46.108 30.9641 46.108C30.3801 46.108 29.8481 45.964 29.3681 45.676C28.8961 45.388 28.5241 44.984 28.2521 44.464C27.9801 43.944 27.8441 43.352 27.8441 42.688ZM33.4121 42.7C33.4121 42.204 33.3121 41.772 33.1121 41.404C32.9121 41.036 32.6401 40.756 32.2961 40.564C31.9601 40.364 31.5881 40.264 31.1801 40.264C30.7721 40.264 30.4001 40.36 30.0641 40.552C29.7281 40.744 29.4601 41.024 29.2601 41.392C29.0601 41.76 28.9601 42.192 28.9601 42.688C28.9601 43.192 29.0601 43.632 29.2601 44.008C29.4601 44.376 29.7281 44.66 30.0641 44.86C30.4001 45.052 30.7721 45.148 31.1801 45.148C31.5881 45.148 31.9601 45.052 32.2961 44.86C32.6401 44.66 32.9121 44.376 33.1121 44.008C33.3121 43.632 33.4121 43.196 33.4121 42.7ZM42.1935 39.424V46H41.1015V45.028C40.8935 45.364 40.6015 45.628 40.2255 45.82C39.8575 46.004 39.4495 46.096 39.0015 46.096C38.4895 46.096 38.0295 45.992 37.6215 45.784C37.2135 45.568 36.8895 45.248 36.6495 44.824C36.4175 44.4 36.3015 43.884 36.3015 43.276V39.424H37.3815V43.132C37.3815 43.78 37.5455 44.28 37.8735 44.632C38.2015 44.976 38.6495 45.148 39.2175 45.148C39.8015 45.148 40.2615 44.968 40.5975 44.608C40.9335 44.248 41.1015 43.724 41.1015 43.036V39.424H42.1935ZM43.6293 42.7C43.6293 42.02 43.7653 41.428 44.0373 40.924C44.3093 40.412 44.6853 40.016 45.1653 39.736C45.6533 39.456 46.2093 39.316 46.8333 39.316C47.6413 39.316 48.3053 39.512 48.8253 39.904C49.3533 40.296 49.7013 40.84 49.8693 41.536H48.6933C48.5813 41.136 48.3613 40.82 48.0333 40.588C47.7133 40.356 47.3133 40.24 46.8333 40.24C46.2093 40.24 45.7053 40.456 45.3213 40.888C44.9373 41.312 44.7453 41.916 44.7453 42.7C44.7453 43.492 44.9373 44.104 45.3213 44.536C45.7053 44.968 46.2093 45.184 46.8333 45.184C47.3133 45.184 47.7133 45.072 48.0333 44.848C48.3533 44.624 48.5733 44.304 48.6933 43.888H49.8693C49.6933 44.56 49.3413 45.1 48.8133 45.508C48.2853 45.908 47.6253 46.108 46.8333 46.108C46.2093 46.108 45.6533 45.968 45.1653 45.688C44.6853 45.408 44.3093 45.012 44.0373 44.5C43.7653 43.988 43.6293 43.388 43.6293 42.7ZM52.6583 40.324V44.2C52.6583 44.52 52.7263 44.748 52.8623 44.884C52.9983 45.012 53.2343 45.076 53.5703 45.076H54.3743V46H53.3903C52.7823 46 52.3263 45.86 52.0223 45.58C51.7183 45.3 51.5663 44.84 51.5663 44.2V40.324H50.7143V39.424H51.5663V37.768H52.6583V39.424H54.3743V40.324H52.6583Z" fill="white"/>
<path fill-rule="evenodd" clip-rule="evenodd" d="M39.6667 14.8334L31.3333 10.6667L23 14.8334V23.1667L31.3333 27.3334L39.6667 23.1667V14.8334Z" stroke="white" stroke-linejoin="round"/>
<path d="M23 14.8333L31.3333 19" stroke="white" stroke-linecap="round" stroke-linejoin="round"/>
<path d="M31.3333 27.3333V19" stroke="white" stroke-linecap="round" stroke-linejoin="round"/>
<path d="M39.6666 14.8333L31.3333 19" stroke="white" stroke-linecap="round" stroke-linejoin="round"/>
<path d="M35.4998 12.75L27.1665 16.9167" stroke="white" stroke-linecap="round" stroke-linejoin="round"/>
<defs>
<filter id="filter0_d_28_712" x="0" y="0" width="63" height="63" filterUnits="userSpaceOnUse" color-interpolation-filters="sRGB">
<feFlood flood-opacity="0" result="BackgroundImageFix"/>
<feColorMatrix in="SourceAlpha" type="matrix" values="0 0 0 0 0 0 0 0 0 0 0 0 0 0 0 0 0 0 127 0" result="hardAlpha"/>
<feOffset dy="4"/>
<feGaussianBlur stdDeviation="2"/>
<feComposite in2="hardAlpha" operator="out"/>
<feColorMatrix type="matrix" values="0 0 0 0 0 0 0 0 0 0 0 0 0 0 0 0 0 0 0.25 0"/>
<feBlend mode="normal" in2="BackgroundImageFix" result="effect1_dropShadow_28_712"/>
<feBlend mode="normal" in="SourceGraphic" in2="effect1_dropShadow_28_712" result="shape"/>
</filter>
</defs>
</svg>
