<svg width="47" height="45" viewBox="0 0 47 45" fill="none" xmlns="http://www.w3.org/2000/svg">
<path d="M6.74256 35.084C6.74256 35.78 6.50256 36.36 6.02256 36.824C5.55056 37.28 4.82656 37.508 3.85056 37.508H2.24256V41H1.15056V32.636H3.85056C4.79456 32.636 5.51056 32.864 5.99856 33.32C6.49456 33.776 6.74256 34.364 6.74256 35.084ZM3.85056 36.608C4.45856 36.608 4.90656 36.476 5.19456 36.212C5.48256 35.948 5.62656 35.572 5.62656 35.084C5.62656 34.052 5.03456 33.536 3.85056 33.536H2.24256V36.608H3.85056ZM9.19178 35.492C9.38378 35.116 9.65578 34.824 10.0078 34.616C10.3678 34.408 10.8038 34.304 11.3158 34.304V35.432H11.0278C9.80378 35.432 9.19178 36.096 9.19178 37.424V41H8.09978V34.424H9.19178V35.492ZM15.4443 41.108C14.8283 41.108 14.2683 40.968 13.7643 40.688C13.2683 40.408 12.8763 40.012 12.5883 39.5C12.3083 38.98 12.1683 38.38 12.1683 37.7C12.1683 37.028 12.3123 36.436 12.6003 35.924C12.8963 35.404 13.2963 35.008 13.8003 34.736C14.3043 34.456 14.8683 34.316 15.4923 34.316C16.1163 34.316 16.6803 34.456 17.1843 34.736C17.6883 35.008 18.0843 35.4 18.3723 35.912C18.6683 36.424 18.8163 37.02 18.8163 37.7C18.8163 38.38 18.6643 38.98 18.3603 39.5C18.0643 40.012 17.6603 40.408 17.1483 40.688C16.6363 40.968 16.0683 41.108 15.4443 41.108ZM15.4443 40.148C15.8363 40.148 16.2043 40.056 16.5483 39.872C16.8923 39.688 17.1683 39.412 17.3763 39.044C17.5923 38.676 17.7003 38.228 17.7003 37.7C17.7003 37.172 17.5963 36.724 17.3883 36.356C17.1803 35.988 16.9083 35.716 16.5723 35.54C16.2363 35.356 15.8723 35.264 15.4803 35.264C15.0803 35.264 14.7123 35.356 14.3763 35.54C14.0483 35.716 13.7843 35.988 13.5843 36.356C13.3843 36.724 13.2843 37.172 13.2843 37.7C13.2843 38.236 13.3803 38.688 13.5723 39.056C13.7723 39.424 14.0363 39.7 14.3643 39.884C14.6923 40.06 15.0523 40.148 15.4443 40.148ZM19.8441 37.688C19.8441 37.016 19.9801 36.428 20.2521 35.924C20.5241 35.412 20.8961 35.016 21.3681 34.736C21.8481 34.456 22.3841 34.316 22.9761 34.316C23.4881 34.316 23.9641 34.436 24.4041 34.676C24.8441 34.908 25.1801 35.216 25.4121 35.6V32.12H26.5161V41H25.4121V39.764C25.1961 40.156 24.8761 40.48 24.4521 40.736C24.0281 40.984 23.5321 41.108 22.9641 41.108C22.3801 41.108 21.8481 40.964 21.3681 40.676C20.8961 40.388 20.5241 39.984 20.2521 39.464C19.9801 38.944 19.8441 38.352 19.8441 37.688ZM25.4121 37.7C25.4121 37.204 25.3121 36.772 25.1121 36.404C24.9121 36.036 24.6401 35.756 24.2961 35.564C23.9601 35.364 23.5881 35.264 23.1801 35.264C22.7721 35.264 22.4001 35.36 22.0641 35.552C21.7281 35.744 21.4601 36.024 21.2601 36.392C21.0601 36.76 20.9601 37.192 20.9601 37.688C20.9601 38.192 21.0601 38.632 21.2601 39.008C21.4601 39.376 21.7281 39.66 22.0641 39.86C22.4001 40.052 22.7721 40.148 23.1801 40.148C23.5881 40.148 23.9601 40.052 24.2961 39.86C24.6401 39.66 24.9121 39.376 25.1121 39.008C25.3121 38.632 25.4121 38.196 25.4121 37.7ZM34.1935 34.424V41H33.1015V40.028C32.8935 40.364 32.6015 40.628 32.2255 40.82C31.8575 41.004 31.4495 41.096 31.0015 41.096C30.4895 41.096 30.0295 40.992 29.6215 40.784C29.2135 40.568 28.8895 40.248 28.6495 39.824C28.4175 39.4 28.3015 38.884 28.3015 38.276V34.424H29.3815V38.132C29.3815 38.78 29.5455 39.28 29.8735 39.632C30.2015 39.976 30.6495 40.148 31.2175 40.148C31.8015 40.148 32.2615 39.968 32.5975 39.608C32.9335 39.248 33.1015 38.724 33.1015 38.036V34.424H34.1935ZM35.6293 37.7C35.6293 37.02 35.7653 36.428 36.0373 35.924C36.3093 35.412 36.6853 35.016 37.1653 34.736C37.6533 34.456 38.2093 34.316 38.8333 34.316C39.6413 34.316 40.3053 34.512 40.8253 34.904C41.3533 35.296 41.7013 35.84 41.8693 36.536H40.6933C40.5813 36.136 40.3613 35.82 40.0333 35.588C39.7133 35.356 39.3133 35.24 38.8333 35.24C38.2093 35.24 37.7053 35.456 37.3213 35.888C36.9373 36.312 36.7453 36.916 36.7453 37.7C36.7453 38.492 36.9373 39.104 37.3213 39.536C37.7053 39.968 38.2093 40.184 38.8333 40.184C39.3133 40.184 39.7133 40.072 40.0333 39.848C40.3533 39.624 40.5733 39.304 40.6933 38.888H41.8693C41.6933 39.56 41.3413 40.1 40.8133 40.508C40.2853 40.908 39.6253 41.108 38.8333 41.108C38.2093 41.108 37.6533 40.968 37.1653 40.688C36.6853 40.408 36.3093 40.012 36.0373 39.5C35.7653 38.988 35.6293 38.388 35.6293 37.7ZM44.6583 35.324V39.2C44.6583 39.52 44.7263 39.748 44.8623 39.884C44.9983 40.012 45.2343 40.076 45.5703 40.076H46.3743V41H45.3903C44.7823 41 44.3263 40.86 44.0223 40.58C43.7183 40.3 43.5663 39.84 43.5663 39.2V35.324H42.7143V34.424H43.5663V32.768H44.6583V34.424H46.3743V35.324H44.6583Z" fill="#20BFAA"/>
<path fill-rule="evenodd" clip-rule="evenodd" d="M31.6667 9.83335L23.3333 5.66669L15 9.83335V18.1667L23.3333 22.3334L31.6667 18.1667V9.83335Z" stroke="#20BFAA" stroke-linejoin="round"/>
<path d="M15 9.83331L23.3333 14" stroke="#20BFAA" stroke-linecap="round" stroke-linejoin="round"/>
<path d="M23.3333 22.3333V14" stroke="#20BFAA" stroke-linecap="round" stroke-linejoin="round"/>
<path d="M31.6666 9.83331L23.3333 14" stroke="#20BFAA" stroke-linecap="round" stroke-linejoin="round"/>
<path d="M27.4998 7.75L19.1665 11.9167" stroke="#20BFAA" stroke-linecap="round" stroke-linejoin="round"/>
</svg>
