<svg width="136" height="42" viewBox="0 0 136 42" fill="none" xmlns="http://www.w3.org/2000/svg">
<g filter="url(#filter0_d_329_392)">
<rect x="4.04004" width="127" height="34" rx="17" fill="url(#paint0_linear_329_392)"/>
</g>
<path d="M34.7333 21L32.7413 17.58H31.4213V21H30.3293V12.636H33.0293C33.6613 12.636 34.1933 12.744 34.6253 12.96C35.0653 13.176 35.3933 13.468 35.6093 13.836C35.8253 14.204 35.9333 14.624 35.9333 15.096C35.9333 15.672 35.7653 16.18 35.4293 16.62C35.1013 17.06 34.6053 17.352 33.9413 17.496L36.0413 21H34.7333ZM31.4213 16.704H33.0293C33.6213 16.704 34.0653 16.56 34.3613 16.272C34.6573 15.976 34.8053 15.584 34.8053 15.096C34.8053 14.6 34.6573 14.216 34.3613 13.944C34.0733 13.672 33.6293 13.536 33.0293 13.536H31.4213V16.704ZM38.7221 13.524V16.32H41.7701V17.22H38.7221V20.1H42.1301V21H37.6301V12.624H42.1301V13.524H38.7221ZM43.3744 16.812C43.3744 15.996 43.5584 15.264 43.9264 14.616C44.2944 13.96 44.7944 13.448 45.4264 13.08C46.0664 12.712 46.7744 12.528 47.5504 12.528C48.4624 12.528 49.2584 12.748 49.9384 13.188C50.6184 13.628 51.1144 14.252 51.4264 15.06H50.1184C49.8864 14.556 49.5504 14.168 49.1104 13.896C48.6784 13.624 48.1584 13.488 47.5504 13.488C46.9664 13.488 46.4424 13.624 45.9784 13.896C45.5144 14.168 45.1504 14.556 44.8864 15.06C44.6224 15.556 44.4904 16.14 44.4904 16.812C44.4904 17.476 44.6224 18.06 44.8864 18.564C45.1504 19.06 45.5144 19.444 45.9784 19.716C46.4424 19.988 46.9664 20.124 47.5504 20.124C48.1584 20.124 48.6784 19.992 49.1104 19.728C49.5504 19.456 49.8864 19.068 50.1184 18.564H51.4264C51.1144 19.364 50.6184 19.984 49.9384 20.424C49.2584 20.856 48.4624 21.072 47.5504 21.072C46.7744 21.072 46.0664 20.892 45.4264 20.532C44.7944 20.164 44.2944 19.656 43.9264 19.008C43.5584 18.36 43.3744 17.628 43.3744 16.812ZM54.1439 13.524V16.32H57.1919V17.22H54.1439V20.1H57.5519V21H53.0519V12.624H57.5519V13.524H54.1439ZM60.2963 12.636V21H59.2043V12.636H60.2963ZM67.7494 15.084C67.7494 15.78 67.5094 16.36 67.0294 16.824C66.5574 17.28 65.8334 17.508 64.8574 17.508H63.2494V21H62.1574V12.636H64.8574C65.8014 12.636 66.5174 12.864 67.0054 13.32C67.5014 13.776 67.7494 14.364 67.7494 15.084ZM64.8574 16.608C65.4654 16.608 65.9134 16.476 66.2014 16.212C66.4894 15.948 66.6334 15.572 66.6334 15.084C66.6334 14.052 66.0414 13.536 64.8574 13.536H63.2494V16.608H64.8574ZM74.2546 12.636V13.524H71.9746V21H70.8826V13.524H68.5906V12.636H74.2546Z" fill="white"/>
<path d="M113.87 23.1329L119.272 17.1202L113.87 11.1076" stroke="white" stroke-width="2" stroke-linecap="round" stroke-linejoin="round"/>
<defs>
<filter id="filter0_d_329_392" x="0.0400391" y="0" width="135" height="42" filterUnits="userSpaceOnUse" color-interpolation-filters="sRGB">
<feFlood flood-opacity="0" result="BackgroundImageFix"/>
<feColorMatrix in="SourceAlpha" type="matrix" values="0 0 0 0 0 0 0 0 0 0 0 0 0 0 0 0 0 0 127 0" result="hardAlpha"/>
<feOffset dy="4"/>
<feGaussianBlur stdDeviation="2"/>
<feComposite in2="hardAlpha" operator="out"/>
<feColorMatrix type="matrix" values="0 0 0 0 0 0 0 0 0 0 0 0 0 0 0 0 0 0 0.25 0"/>
<feBlend mode="normal" in2="BackgroundImageFix" result="effect1_dropShadow_329_392"/>
<feBlend mode="normal" in="SourceGraphic" in2="effect1_dropShadow_329_392" result="shape"/>
</filter>
<linearGradient id="paint0_linear_329_392" x1="4.04004" y1="17" x2="131.04" y2="17" gradientUnits="userSpaceOnUse">
<stop stop-color="#20BFAA"/>
<stop offset="0.57378" stop-color="#12E7CB"/>
</linearGradient>
</defs>
</svg>
