<svg width="46" height="45" viewBox="0 0 46 45" fill="none" xmlns="http://www.w3.org/2000/svg">
<path d="M5.87488 41L3.88288 37.58H2.56288V41H1.47088V32.636H4.17088C4.80288 32.636 5.33488 32.744 5.76688 32.96C6.20688 33.176 6.53488 33.468 6.75088 33.836C6.96688 34.204 7.07488 34.624 7.07488 35.096C7.07488 35.672 6.90688 36.18 6.57088 36.62C6.24288 37.06 5.74688 37.352 5.08288 37.496L7.18288 41H5.87488ZM2.56288 36.704H4.17088C4.76288 36.704 5.20688 36.56 5.50288 36.272C5.79888 35.976 5.94688 35.584 5.94688 35.096C5.94688 34.6 5.79888 34.216 5.50288 33.944C5.21488 33.672 4.77088 33.536 4.17088 33.536H2.56288V36.704ZM14.7717 37.46C14.7717 37.668 14.7597 37.888 14.7357 38.12H9.47966C9.51966 38.768 9.73966 39.276 10.1397 39.644C10.5477 40.004 11.0397 40.184 11.6157 40.184C12.0877 40.184 12.4797 40.076 12.7917 39.86C13.1117 39.636 13.3357 39.34 13.4637 38.972H14.6397C14.4637 39.604 14.1117 40.12 13.5837 40.52C13.0557 40.912 12.3997 41.108 11.6157 41.108C10.9917 41.108 10.4317 40.968 9.93566 40.688C9.44766 40.408 9.06366 40.012 8.78366 39.5C8.50366 38.98 8.36366 38.38 8.36366 37.7C8.36366 37.02 8.49966 36.424 8.77166 35.912C9.04366 35.4 9.42366 35.008 9.91166 34.736C10.4077 34.456 10.9757 34.316 11.6157 34.316C12.2397 34.316 12.7917 34.452 13.2717 34.724C13.7517 34.996 14.1197 35.372 14.3757 35.852C14.6397 36.324 14.7717 36.86 14.7717 37.46ZM13.6437 37.232C13.6437 36.816 13.5517 36.46 13.3677 36.164C13.1837 35.86 12.9317 35.632 12.6117 35.48C12.2997 35.32 11.9517 35.24 11.5677 35.24C11.0157 35.24 10.5437 35.416 10.1517 35.768C9.76766 36.12 9.54766 36.608 9.49166 37.232H13.6437ZM15.8051 37.7C15.8051 37.02 15.9411 36.428 16.2131 35.924C16.4851 35.412 16.8611 35.016 17.3411 34.736C17.8291 34.456 18.3851 34.316 19.0091 34.316C19.8171 34.316 20.4811 34.512 21.0011 34.904C21.5291 35.296 21.8771 35.84 22.0451 36.536H20.8691C20.7571 36.136 20.5371 35.82 20.2091 35.588C19.8891 35.356 19.4891 35.24 19.0091 35.24C18.3851 35.24 17.8811 35.456 17.4971 35.888C17.1131 36.312 16.9211 36.916 16.9211 37.7C16.9211 38.492 17.1131 39.104 17.4971 39.536C17.8811 39.968 18.3851 40.184 19.0091 40.184C19.4891 40.184 19.8891 40.072 20.2091 39.848C20.5291 39.624 20.7491 39.304 20.8691 38.888H22.0451C21.8691 39.56 21.5171 40.1 20.9891 40.508C20.4611 40.908 19.8011 41.108 19.0091 41.108C18.3851 41.108 17.8291 40.968 17.3411 40.688C16.8611 40.408 16.4851 40.012 16.2131 39.5C15.9411 38.988 15.8051 38.388 15.8051 37.7ZM29.5021 37.46C29.5021 37.668 29.4901 37.888 29.4661 38.12H24.2101C24.2501 38.768 24.4701 39.276 24.8701 39.644C25.2781 40.004 25.7701 40.184 26.3461 40.184C26.8181 40.184 27.2101 40.076 27.5221 39.86C27.8421 39.636 28.0661 39.34 28.1941 38.972H29.3701C29.1941 39.604 28.8421 40.12 28.3141 40.52C27.7861 40.912 27.1301 41.108 26.3461 41.108C25.7221 41.108 25.1621 40.968 24.6661 40.688C24.1781 40.408 23.7941 40.012 23.5141 39.5C23.2341 38.98 23.0941 38.38 23.0941 37.7C23.0941 37.02 23.2301 36.424 23.5021 35.912C23.7741 35.4 24.1541 35.008 24.6421 34.736C25.1381 34.456 25.7061 34.316 26.3461 34.316C26.9701 34.316 27.5221 34.452 28.0021 34.724C28.4821 34.996 28.8501 35.372 29.1061 35.852C29.3701 36.324 29.5021 36.86 29.5021 37.46ZM28.3741 37.232C28.3741 36.816 28.2821 36.46 28.0981 36.164C27.9141 35.86 27.6621 35.632 27.3421 35.48C27.0301 35.32 26.6821 35.24 26.2981 35.24C25.7461 35.24 25.2741 35.416 24.8821 35.768C24.4981 36.12 24.2781 36.608 24.2221 37.232H28.3741ZM31.5075 33.356C31.2995 33.356 31.1235 33.284 30.9795 33.14C30.8355 32.996 30.7635 32.82 30.7635 32.612C30.7635 32.404 30.8355 32.228 30.9795 32.084C31.1235 31.94 31.2995 31.868 31.5075 31.868C31.7075 31.868 31.8755 31.94 32.0115 32.084C32.1555 32.228 32.2275 32.404 32.2275 32.612C32.2275 32.82 32.1555 32.996 32.0115 33.14C31.8755 33.284 31.7075 33.356 31.5075 33.356ZM32.0355 34.424V41H30.9435V34.424H32.0355ZM34.9887 35.636C35.2047 35.26 35.5247 34.948 35.9487 34.7C36.3807 34.444 36.8807 34.316 37.4487 34.316C38.0327 34.316 38.5607 34.456 39.0327 34.736C39.5127 35.016 39.8887 35.412 40.1607 35.924C40.4327 36.428 40.5687 37.016 40.5687 37.688C40.5687 38.352 40.4327 38.944 40.1607 39.464C39.8887 39.984 39.5127 40.388 39.0327 40.676C38.5607 40.964 38.0327 41.108 37.4487 41.108C36.8887 41.108 36.3927 40.984 35.9607 40.736C35.5367 40.48 35.2127 40.164 34.9887 39.788V44.12H33.8967V34.424H34.9887V35.636ZM39.4527 37.688C39.4527 37.192 39.3527 36.76 39.1527 36.392C38.9527 36.024 38.6807 35.744 38.3367 35.552C38.0007 35.36 37.6287 35.264 37.2207 35.264C36.8207 35.264 36.4487 35.364 36.1047 35.564C35.7687 35.756 35.4967 36.04 35.2887 36.416C35.0887 36.784 34.9887 37.212 34.9887 37.7C34.9887 38.196 35.0887 38.632 35.2887 39.008C35.4967 39.376 35.7687 39.66 36.1047 39.86C36.4487 40.052 36.8207 40.148 37.2207 40.148C37.6287 40.148 38.0007 40.052 38.3367 39.86C38.6807 39.66 38.9527 39.376 39.1527 39.008C39.3527 38.632 39.4527 38.192 39.4527 37.688ZM43.338 35.324V39.2C43.338 39.52 43.406 39.748 43.542 39.884C43.678 40.012 43.914 40.076 44.25 40.076H45.054V41H44.07C43.462 41 43.006 40.86 42.702 40.58C42.398 40.3 42.246 39.84 42.246 39.2V35.324H41.394V34.424H42.246V32.768H43.338V34.424H45.054V35.324H43.338Z" fill="#20BFAA"/>
<path d="M13.9717 21.9688C13.8467 21.9688 13.7217 21.9219 13.628 21.8125C13.5342 21.7188 13.4873 21.5938 13.503 21.4531L14.4873 6.32812C14.503 6.07812 14.7061 5.89062 14.9561 5.89062H19.0811V5.82812C19.0811 4.79688 19.4873 3.84375 20.2061 3.10938C20.9405 2.40625 21.8936 2 22.9248 2C25.0342 2 26.7686 3.71875 26.7686 5.84375C26.7686 5.85938 26.753 5.875 26.753 5.89062V5.90625H30.8936C31.1436 5.90625 31.3467 6.09375 31.3623 6.34375L32.3311 21.3594C32.3467 21.4062 32.3467 21.4375 32.3467 21.4844C32.3311 21.75 32.128 21.9688 31.8623 21.9688H13.9717ZM14.4717 21.0312H31.3623L30.4561 6.84375H26.753V7.96875H26.7686C27.0186 8.14062 27.1592 8.39062 27.1592 8.67188C27.1592 9.15625 26.7686 9.54688 26.2842 9.54688C25.7998 9.54688 25.4092 9.15625 25.4092 8.67188C25.4092 8.39062 25.5498 8.14062 25.7998 7.96875H25.8155V6.84375H20.0186V7.96875H20.0342C20.2842 8.14062 20.4248 8.39062 20.4248 8.67188C20.4248 9.15625 20.0342 9.54688 19.5498 9.54688C19.0655 9.54688 18.6748 9.15625 18.6748 8.67188C18.6748 8.39062 18.8155 8.14062 19.0655 7.96875H19.0811V6.84375H15.378L14.4717 21.0312ZM22.9248 2.95312C21.3311 2.95312 20.0186 4.25 20.0186 5.85937V5.92188H25.8467L25.8311 5.89062V5.85937C25.8311 4.25 24.5186 2.95312 22.9248 2.95312Z" fill="#20BFAA"/>
</svg>
