<svg width="64" height="63" viewBox="0 0 64 63" fill="none" xmlns="http://www.w3.org/2000/svg">
<g filter="url(#filter0_d_386_130)">
<rect x="4.5" width="55" height="55" rx="10" fill="#20BFAA"/>
</g>
<path d="M15.8749 46L13.8829 42.58H12.5629V46H11.4709V37.636H14.1709C14.8029 37.636 15.3349 37.744 15.7669 37.96C16.2069 38.176 16.5349 38.468 16.7509 38.836C16.9669 39.204 17.0749 39.624 17.0749 40.096C17.0749 40.672 16.9069 41.18 16.5709 41.62C16.2429 42.06 15.7469 42.352 15.0829 42.496L17.1829 46H15.8749ZM12.5629 41.704H14.1709C14.7629 41.704 15.2069 41.56 15.5029 41.272C15.7989 40.976 15.9469 40.584 15.9469 40.096C15.9469 39.6 15.7989 39.216 15.5029 38.944C15.2149 38.672 14.7709 38.536 14.1709 38.536H12.5629V41.704ZM24.7717 42.46C24.7717 42.668 24.7597 42.888 24.7357 43.12H19.4797C19.5197 43.768 19.7397 44.276 20.1397 44.644C20.5477 45.004 21.0397 45.184 21.6157 45.184C22.0877 45.184 22.4797 45.076 22.7917 44.86C23.1117 44.636 23.3357 44.34 23.4637 43.972H24.6397C24.4637 44.604 24.1117 45.12 23.5837 45.52C23.0557 45.912 22.3997 46.108 21.6157 46.108C20.9917 46.108 20.4317 45.968 19.9357 45.688C19.4477 45.408 19.0637 45.012 18.7837 44.5C18.5037 43.98 18.3637 43.38 18.3637 42.7C18.3637 42.02 18.4997 41.424 18.7717 40.912C19.0437 40.4 19.4237 40.008 19.9117 39.736C20.4077 39.456 20.9757 39.316 21.6157 39.316C22.2397 39.316 22.7917 39.452 23.2717 39.724C23.7517 39.996 24.1197 40.372 24.3757 40.852C24.6397 41.324 24.7717 41.86 24.7717 42.46ZM23.6437 42.232C23.6437 41.816 23.5517 41.46 23.3677 41.164C23.1837 40.86 22.9317 40.632 22.6117 40.48C22.2997 40.32 21.9517 40.24 21.5677 40.24C21.0157 40.24 20.5437 40.416 20.1517 40.768C19.7677 41.12 19.5477 41.608 19.4917 42.232H23.6437ZM25.8051 42.7C25.8051 42.02 25.9411 41.428 26.2131 40.924C26.4851 40.412 26.8611 40.016 27.3411 39.736C27.8291 39.456 28.3851 39.316 29.0091 39.316C29.8171 39.316 30.4811 39.512 31.0011 39.904C31.5291 40.296 31.8771 40.84 32.0451 41.536H30.8691C30.7571 41.136 30.5371 40.82 30.2091 40.588C29.8891 40.356 29.4891 40.24 29.0091 40.24C28.3851 40.24 27.8811 40.456 27.4971 40.888C27.1131 41.312 26.9211 41.916 26.9211 42.7C26.9211 43.492 27.1131 44.104 27.4971 44.536C27.8811 44.968 28.3851 45.184 29.0091 45.184C29.4891 45.184 29.8891 45.072 30.2091 44.848C30.5291 44.624 30.7491 44.304 30.8691 43.888H32.0451C31.8691 44.56 31.5171 45.1 30.9891 45.508C30.4611 45.908 29.8011 46.108 29.0091 46.108C28.3851 46.108 27.8291 45.968 27.3411 45.688C26.8611 45.408 26.4851 45.012 26.2131 44.5C25.9411 43.988 25.8051 43.388 25.8051 42.7ZM39.5021 42.46C39.5021 42.668 39.4901 42.888 39.4661 43.12H34.2101C34.2501 43.768 34.4701 44.276 34.8701 44.644C35.2781 45.004 35.7701 45.184 36.3461 45.184C36.8181 45.184 37.2101 45.076 37.5221 44.86C37.8421 44.636 38.0661 44.34 38.1941 43.972H39.3701C39.1941 44.604 38.8421 45.12 38.3141 45.52C37.7861 45.912 37.1301 46.108 36.3461 46.108C35.7221 46.108 35.1621 45.968 34.6661 45.688C34.1781 45.408 33.7941 45.012 33.5141 44.5C33.2341 43.98 33.0941 43.38 33.0941 42.7C33.0941 42.02 33.2301 41.424 33.5021 40.912C33.7741 40.4 34.1541 40.008 34.6421 39.736C35.1381 39.456 35.7061 39.316 36.3461 39.316C36.9701 39.316 37.5221 39.452 38.0021 39.724C38.4821 39.996 38.8501 40.372 39.1061 40.852C39.3701 41.324 39.5021 41.86 39.5021 42.46ZM38.3741 42.232C38.3741 41.816 38.2821 41.46 38.0981 41.164C37.9141 40.86 37.6621 40.632 37.3421 40.48C37.0301 40.32 36.6821 40.24 36.2981 40.24C35.7461 40.24 35.2741 40.416 34.8821 40.768C34.4981 41.12 34.2781 41.608 34.2221 42.232H38.3741ZM41.5075 38.356C41.2995 38.356 41.1235 38.284 40.9795 38.14C40.8355 37.996 40.7635 37.82 40.7635 37.612C40.7635 37.404 40.8355 37.228 40.9795 37.084C41.1235 36.94 41.2995 36.868 41.5075 36.868C41.7075 36.868 41.8755 36.94 42.0115 37.084C42.1555 37.228 42.2275 37.404 42.2275 37.612C42.2275 37.82 42.1555 37.996 42.0115 38.14C41.8755 38.284 41.7075 38.356 41.5075 38.356ZM42.0355 39.424V46H40.9435V39.424H42.0355ZM44.9887 40.636C45.2047 40.26 45.5247 39.948 45.9487 39.7C46.3807 39.444 46.8807 39.316 47.4487 39.316C48.0327 39.316 48.5607 39.456 49.0327 39.736C49.5127 40.016 49.8887 40.412 50.1607 40.924C50.4327 41.428 50.5687 42.016 50.5687 42.688C50.5687 43.352 50.4327 43.944 50.1607 44.464C49.8887 44.984 49.5127 45.388 49.0327 45.676C48.5607 45.964 48.0327 46.108 47.4487 46.108C46.8887 46.108 46.3927 45.984 45.9607 45.736C45.5367 45.48 45.2127 45.164 44.9887 44.788V49.12H43.8967V39.424H44.9887V40.636ZM49.4527 42.688C49.4527 42.192 49.3527 41.76 49.1527 41.392C48.9527 41.024 48.6807 40.744 48.3367 40.552C48.0007 40.36 47.6287 40.264 47.2207 40.264C46.8207 40.264 46.4487 40.364 46.1047 40.564C45.7687 40.756 45.4967 41.04 45.2887 41.416C45.0887 41.784 44.9887 42.212 44.9887 42.7C44.9887 43.196 45.0887 43.632 45.2887 44.008C45.4967 44.376 45.7687 44.66 46.1047 44.86C46.4487 45.052 46.8207 45.148 47.2207 45.148C47.6287 45.148 48.0007 45.052 48.3367 44.86C48.6807 44.66 48.9527 44.376 49.1527 44.008C49.3527 43.632 49.4527 43.192 49.4527 42.688ZM53.338 40.324V44.2C53.338 44.52 53.406 44.748 53.542 44.884C53.678 45.012 53.914 45.076 54.25 45.076H55.054V46H54.07C53.462 46 53.006 45.86 52.702 45.58C52.398 45.3 52.246 44.84 52.246 44.2V40.324H51.394V39.424H52.246V37.768H53.338V39.424H55.054V40.324H53.338Z" fill="white"/>
<path d="M39.2031 7H26.986C25.8891 7 25 7.88913 25 8.98596V25.101C25 25.6123 25.2095 26.1014 25.5794 26.4539C25.95 26.8067 26.4485 26.9926 26.9592 26.9678L38.1231 26.428V26.4277C38.5385 26.4242 38.9371 26.3386 39.2998 26.185C39.8556 25.9499 40.3267 25.5584 40.6603 25.0648C40.9938 24.5716 41.1893 23.9732 41.1893 23.3344V8.98596C41.1894 7.88913 40.2999 7 39.2031 7ZM40.0354 23.3344C40.0351 23.6041 39.981 23.8576 39.8831 24.0895C39.7362 24.4368 39.4892 24.7345 39.1792 24.9437C38.8692 25.1531 38.4989 25.2744 38.0952 25.2746C37.8411 25.2743 37.5897 25.2137 37.3482 25.0914C36.9872 24.9079 36.6469 24.5822 36.3926 24.1044C36.1389 23.6272 35.9728 22.9982 35.9725 22.225V21.8807C35.9725 21.7627 35.9134 21.6529 35.8149 21.5879C35.7165 21.5232 35.5918 21.5122 35.4837 21.559L26.8062 25.298C26.6617 25.36 26.4956 25.3457 26.3643 25.2592C26.2329 25.1727 26.1539 25.0258 26.1539 24.8688V9.08851C26.1539 8.57229 26.5722 8.15393 27.0882 8.15393H39.1005C39.6168 8.15393 40.0354 8.57229 40.0354 9.08851V23.3344H40.0354Z" fill="white"/>
<path d="M37.4633 11.2036H28.7258V12.3575H37.4633V11.2036Z" fill="white"/>
<path d="M37.4633 14.7481H28.7258V15.9021H37.4633V14.7481Z" fill="white"/>
<path d="M37.4633 18.2924H28.7258V19.4464H37.4633V18.2924Z" fill="white"/>
<defs>
<filter id="filter0_d_386_130" x="0.5" y="0" width="63" height="63" filterUnits="userSpaceOnUse" color-interpolation-filters="sRGB">
<feFlood flood-opacity="0" result="BackgroundImageFix"/>
<feColorMatrix in="SourceAlpha" type="matrix" values="0 0 0 0 0 0 0 0 0 0 0 0 0 0 0 0 0 0 127 0" result="hardAlpha"/>
<feOffset dy="4"/>
<feGaussianBlur stdDeviation="2"/>
<feComposite in2="hardAlpha" operator="out"/>
<feColorMatrix type="matrix" values="0 0 0 0 0 0 0 0 0 0 0 0 0 0 0 0 0 0 0.25 0"/>
<feBlend mode="normal" in2="BackgroundImageFix" result="effect1_dropShadow_386_130"/>
<feBlend mode="normal" in="SourceGraphic" in2="effect1_dropShadow_386_130" result="shape"/>
</filter>
</defs>
</svg>
