<svg width="64" height="63" viewBox="0 0 64 63" fill="none" xmlns="http://www.w3.org/2000/svg">
<g filter="url(#filter0_d_329_130)">
<rect x="4.5" width="55" height="55" rx="10" fill="#20BFAA"/>
</g>
<path d="M15.3749 46L13.3829 42.58H12.0629V46H10.9709V37.636H13.6709C14.3029 37.636 14.8349 37.744 15.2669 37.96C15.7069 38.176 16.0349 38.468 16.2509 38.836C16.4669 39.204 16.5749 39.624 16.5749 40.096C16.5749 40.672 16.4069 41.18 16.0709 41.62C15.7429 42.06 15.2469 42.352 14.5829 42.496L16.6829 46H15.3749ZM12.0629 41.704H13.6709C14.2629 41.704 14.7069 41.56 15.0029 41.272C15.2989 40.976 15.4469 40.584 15.4469 40.096C15.4469 39.6 15.2989 39.216 15.0029 38.944C14.7149 38.672 14.2709 38.536 13.6709 38.536H12.0629V41.704ZM24.2717 42.46C24.2717 42.668 24.2597 42.888 24.2357 43.12H18.9797C19.0197 43.768 19.2397 44.276 19.6397 44.644C20.0477 45.004 20.5397 45.184 21.1157 45.184C21.5877 45.184 21.9797 45.076 22.2917 44.86C22.6117 44.636 22.8357 44.34 22.9637 43.972H24.1397C23.9637 44.604 23.6117 45.12 23.0837 45.52C22.5557 45.912 21.8997 46.108 21.1157 46.108C20.4917 46.108 19.9317 45.968 19.4357 45.688C18.9477 45.408 18.5637 45.012 18.2837 44.5C18.0037 43.98 17.8637 43.38 17.8637 42.7C17.8637 42.02 17.9997 41.424 18.2717 40.912C18.5437 40.4 18.9237 40.008 19.4117 39.736C19.9077 39.456 20.4757 39.316 21.1157 39.316C21.7397 39.316 22.2917 39.452 22.7717 39.724C23.2517 39.996 23.6197 40.372 23.8757 40.852C24.1397 41.324 24.2717 41.86 24.2717 42.46ZM23.1437 42.232C23.1437 41.816 23.0517 41.46 22.8677 41.164C22.6837 40.86 22.4317 40.632 22.1117 40.48C21.7997 40.32 21.4517 40.24 21.0677 40.24C20.5157 40.24 20.0437 40.416 19.6517 40.768C19.2677 41.12 19.0477 41.608 18.9917 42.232H23.1437ZM25.3051 42.7C25.3051 42.02 25.4411 41.428 25.7131 40.924C25.9851 40.412 26.3611 40.016 26.8411 39.736C27.3291 39.456 27.8851 39.316 28.5091 39.316C29.3171 39.316 29.9811 39.512 30.5011 39.904C31.0291 40.296 31.3771 40.84 31.5451 41.536H30.3691C30.2571 41.136 30.0371 40.82 29.7091 40.588C29.3891 40.356 28.9891 40.24 28.5091 40.24C27.8851 40.24 27.3811 40.456 26.9971 40.888C26.6131 41.312 26.4211 41.916 26.4211 42.7C26.4211 43.492 26.6131 44.104 26.9971 44.536C27.3811 44.968 27.8851 45.184 28.5091 45.184C28.9891 45.184 29.3891 45.072 29.7091 44.848C30.0291 44.624 30.2491 44.304 30.3691 43.888H31.5451C31.3691 44.56 31.0171 45.1 30.4891 45.508C29.9611 45.908 29.3011 46.108 28.5091 46.108C27.8851 46.108 27.3291 45.968 26.8411 45.688C26.3611 45.408 25.9851 45.012 25.7131 44.5C25.4411 43.988 25.3051 43.388 25.3051 42.7ZM39.0021 42.46C39.0021 42.668 38.9901 42.888 38.9661 43.12H33.7101C33.7501 43.768 33.9701 44.276 34.3701 44.644C34.7781 45.004 35.2701 45.184 35.8461 45.184C36.3181 45.184 36.7101 45.076 37.0221 44.86C37.3421 44.636 37.5661 44.34 37.6941 43.972H38.8701C38.6941 44.604 38.3421 45.12 37.8141 45.52C37.2861 45.912 36.6301 46.108 35.8461 46.108C35.2221 46.108 34.6621 45.968 34.1661 45.688C33.6781 45.408 33.2941 45.012 33.0141 44.5C32.7341 43.98 32.5941 43.38 32.5941 42.7C32.5941 42.02 32.7301 41.424 33.0021 40.912C33.2741 40.4 33.6541 40.008 34.1421 39.736C34.6381 39.456 35.2061 39.316 35.8461 39.316C36.4701 39.316 37.0221 39.452 37.5021 39.724C37.9821 39.996 38.3501 40.372 38.6061 40.852C38.8701 41.324 39.0021 41.86 39.0021 42.46ZM37.8741 42.232C37.8741 41.816 37.7821 41.46 37.5981 41.164C37.4141 40.86 37.1621 40.632 36.8421 40.48C36.5301 40.32 36.1821 40.24 35.7981 40.24C35.2461 40.24 34.7741 40.416 34.3821 40.768C33.9981 41.12 33.7781 41.608 33.7221 42.232H37.8741ZM41.0075 38.356C40.7995 38.356 40.6235 38.284 40.4795 38.14C40.3355 37.996 40.2635 37.82 40.2635 37.612C40.2635 37.404 40.3355 37.228 40.4795 37.084C40.6235 36.94 40.7995 36.868 41.0075 36.868C41.2075 36.868 41.3755 36.94 41.5115 37.084C41.6555 37.228 41.7275 37.404 41.7275 37.612C41.7275 37.82 41.6555 37.996 41.5115 38.14C41.3755 38.284 41.2075 38.356 41.0075 38.356ZM41.5355 39.424V46H40.4435V39.424H41.5355ZM44.4887 40.636C44.7047 40.26 45.0247 39.948 45.4487 39.7C45.8807 39.444 46.3807 39.316 46.9487 39.316C47.5327 39.316 48.0607 39.456 48.5327 39.736C49.0127 40.016 49.3887 40.412 49.6607 40.924C49.9327 41.428 50.0687 42.016 50.0687 42.688C50.0687 43.352 49.9327 43.944 49.6607 44.464C49.3887 44.984 49.0127 45.388 48.5327 45.676C48.0607 45.964 47.5327 46.108 46.9487 46.108C46.3887 46.108 45.8927 45.984 45.4607 45.736C45.0367 45.48 44.7127 45.164 44.4887 44.788V49.12H43.3967V39.424H44.4887V40.636ZM48.9527 42.688C48.9527 42.192 48.8527 41.76 48.6527 41.392C48.4527 41.024 48.1807 40.744 47.8367 40.552C47.5007 40.36 47.1287 40.264 46.7207 40.264C46.3207 40.264 45.9487 40.364 45.6047 40.564C45.2687 40.756 44.9967 41.04 44.7887 41.416C44.5887 41.784 44.4887 42.212 44.4887 42.7C44.4887 43.196 44.5887 43.632 44.7887 44.008C44.9967 44.376 45.2687 44.66 45.6047 44.86C45.9487 45.052 46.3207 45.148 46.7207 45.148C47.1287 45.148 47.5007 45.052 47.8367 44.86C48.1807 44.66 48.4527 44.376 48.6527 44.008C48.8527 43.632 48.9527 43.192 48.9527 42.688ZM52.838 40.324V44.2C52.838 44.52 52.906 44.748 53.042 44.884C53.178 45.012 53.414 45.076 53.75 45.076H54.554V46H53.57C52.962 46 52.506 45.86 52.202 45.58C51.898 45.3 51.746 44.84 51.746 44.2V40.324H50.894V39.424H51.746V37.768H52.838V39.424H54.554V40.324H52.838Z" fill="white"/>
<path d="M23.4717 26.9688C23.3467 26.9688 23.2217 26.9219 23.128 26.8125C23.0342 26.7188 22.9873 26.5938 23.003 26.4531L23.9873 11.3281C24.003 11.0781 24.2061 10.8906 24.4561 10.8906H28.5811V10.8281C28.5811 9.79688 28.9873 8.84375 29.7061 8.10938C30.4405 7.40625 31.3936 7 32.4248 7C34.5342 7 36.2686 8.71875 36.2686 10.8438C36.2686 10.8594 36.253 10.875 36.253 10.8906V10.9062H40.3936C40.6436 10.9062 40.8467 11.0938 40.8623 11.3438L41.8311 26.3594C41.8467 26.4062 41.8467 26.4375 41.8467 26.4844C41.8311 26.75 41.628 26.9688 41.3623 26.9688H23.4717ZM23.9717 26.0312H40.8623L39.9561 11.8438H36.253V12.9688H36.2686C36.5186 13.1406 36.6592 13.3906 36.6592 13.6719C36.6592 14.1562 36.2686 14.5469 35.7842 14.5469C35.2998 14.5469 34.9092 14.1562 34.9092 13.6719C34.9092 13.3906 35.0498 13.1406 35.2998 12.9688H35.3155V11.8438H29.5186V12.9688H29.5342C29.7842 13.1406 29.9248 13.3906 29.9248 13.6719C29.9248 14.1562 29.5342 14.5469 29.0498 14.5469C28.5655 14.5469 28.1748 14.1562 28.1748 13.6719C28.1748 13.3906 28.3155 13.1406 28.5655 12.9688H28.5811V11.8438H24.878L23.9717 26.0312ZM32.4248 7.95312C30.8311 7.95312 29.5186 9.25 29.5186 10.8594V10.9219H35.3467L35.3311 10.8906V10.8594C35.3311 9.25 34.0186 7.95312 32.4248 7.95312Z" fill="white"/>
<defs>
<filter id="filter0_d_329_130" x="0.5" y="0" width="63" height="63" filterUnits="userSpaceOnUse" color-interpolation-filters="sRGB">
<feFlood flood-opacity="0" result="BackgroundImageFix"/>
<feColorMatrix in="SourceAlpha" type="matrix" values="0 0 0 0 0 0 0 0 0 0 0 0 0 0 0 0 0 0 127 0" result="hardAlpha"/>
<feOffset dy="4"/>
<feGaussianBlur stdDeviation="2"/>
<feComposite in2="hardAlpha" operator="out"/>
<feColorMatrix type="matrix" values="0 0 0 0 0 0 0 0 0 0 0 0 0 0 0 0 0 0 0.25 0"/>
<feBlend mode="normal" in2="BackgroundImageFix" result="effect1_dropShadow_329_130"/>
<feBlend mode="normal" in="SourceGraphic" in2="effect1_dropShadow_329_130" result="shape"/>
</filter>
</defs>
</svg>
