<svg width="17" height="18" viewBox="0 0 17 18" fill="none" xmlns="http://www.w3.org/2000/svg">
<path fill-rule="evenodd" clip-rule="evenodd" d="M7.54358 2.16402C4.41893 2.16402 1.8859 4.78737 1.8859 8.02345C1.8859 11.2595 4.41893 13.8829 7.54358 13.8829C10.6682 13.8829 13.2013 11.2595 13.2013 8.02345C13.2013 4.78737 10.6682 2.16402 7.54358 2.16402ZM0 8.02345C0 3.70868 3.37738 0.210876 7.54358 0.210876C11.7098 0.210876 15.0872 3.70868 15.0872 8.02345C15.0872 8.2035 15.0813 8.38213 15.0697 8.55914C14.8968 11.203 14.8565 14.216 16.6969 16.1221V16.1221C17.0651 16.5034 17.0651 17.1218 16.6969 17.5031C16.3287 17.8845 15.7316 17.8845 15.3634 17.5031V17.5031C13.5547 15.63 10.5491 15.6822 7.94923 15.8249C7.81492 15.8323 7.67967 15.836 7.54358 15.836C3.37738 15.836 0 12.3382 0 8.02345Z" fill="#58625A"/>
</svg>
