<svg width="26" height="25" viewBox="0 0 26 25" fill="none" xmlns="http://www.w3.org/2000/svg">
<path d="M25.195 13.2365L19.7277 18.7053C19.5821 18.851 19.3965 18.9502 19.1944 18.9904C18.9923 19.0306 18.7828 19.01 18.5925 18.9312C18.4021 18.8524 18.2394 18.7188 18.1249 18.5475C18.0104 18.3762 17.9493 18.1748 17.9493 17.9688V13.5417H9.87501C9.59874 13.5417 9.33379 13.4319 9.13844 13.2366C8.94308 13.0412 8.83334 12.7763 8.83334 12.5C8.83334 12.2237 8.94308 11.9588 9.13844 11.7634C9.33379 11.5681 9.59874 11.4583 9.87501 11.4583H17.9493V7.03125C17.9493 6.82521 18.0104 6.62379 18.1249 6.45248C18.2394 6.28116 18.4021 6.14764 18.5925 6.06881C18.7828 5.98997 18.9923 5.96936 19.1944 6.00958C19.3965 6.0498 19.5821 6.14905 19.7277 6.29476L25.195 11.7635C25.3903 11.9589 25.5 12.2238 25.5 12.5C25.5 12.7762 25.3903 13.0412 25.195 13.2365V13.2365ZM9.87501 22.9167H2.58333V2.08333H9.87501C10.1513 2.08333 10.4162 1.97359 10.6116 1.77824C10.8069 1.58289 10.9167 1.31793 10.9167 1.04167C10.9167 0.7654 10.8069 0.500448 10.6116 0.305097C10.4162 0.109747 10.1513 0 9.87501 0H2.58333C2.03099 0.00063169 1.50146 0.220328 1.11089 0.610892C0.720328 1.00146 0.500632 1.53099 0.5 2.08333V22.9167C0.500632 23.469 0.720328 23.9986 1.11089 24.3891C1.50146 24.7797 2.03099 24.9994 2.58333 25H9.87501C10.1513 25 10.4162 24.8903 10.6116 24.6949C10.8069 24.4996 10.9167 24.2346 10.9167 23.9583C10.9167 23.6821 10.8069 23.4171 10.6116 23.2218C10.4162 23.0264 10.1513 22.9167 9.87501 22.9167Z" fill="#20BFAA"/>
</svg>
