<svg width="63" height="63" viewBox="0 0 63 63" fill="none" xmlns="http://www.w3.org/2000/svg">
<g filter="url(#filter0_d_172_5326)">
<rect x="4" width="55" height="55" rx="10" fill="#20BFAA"/>
</g>
<path d="M18.7987 46.084C18.2467 46.084 17.7507 45.988 17.3107 45.796C16.8787 45.596 16.5387 45.324 16.2907 44.98C16.0427 44.628 15.9147 44.224 15.9067 43.768H17.0707C17.1107 44.16 17.2707 44.492 17.5507 44.764C17.8387 45.028 18.2547 45.16 18.7987 45.16C19.3187 45.16 19.7267 45.032 20.0227 44.776C20.3267 44.512 20.4787 44.176 20.4787 43.768C20.4787 43.448 20.3907 43.188 20.2147 42.988C20.0387 42.788 19.8187 42.636 19.5547 42.532C19.2907 42.428 18.9347 42.316 18.4867 42.196C17.9347 42.052 17.4907 41.908 17.1547 41.764C16.8267 41.62 16.5427 41.396 16.3027 41.092C16.0707 40.78 15.9547 40.364 15.9547 39.844C15.9547 39.388 16.0707 38.984 16.3027 38.632C16.5347 38.28 16.8587 38.008 17.2747 37.816C17.6987 37.624 18.1827 37.528 18.7267 37.528C19.5107 37.528 20.1507 37.724 20.6467 38.116C21.1507 38.508 21.4347 39.028 21.4987 39.676H20.2987C20.2587 39.356 20.0907 39.076 19.7947 38.836C19.4987 38.588 19.1067 38.464 18.6187 38.464C18.1627 38.464 17.7907 38.584 17.5027 38.824C17.2147 39.056 17.0707 39.384 17.0707 39.808C17.0707 40.112 17.1547 40.36 17.3227 40.552C17.4987 40.744 17.7107 40.892 17.9587 40.996C18.2147 41.092 18.5707 41.204 19.0267 41.332C19.5787 41.484 20.0227 41.636 20.3587 41.788C20.6947 41.932 20.9827 42.16 21.2227 42.472C21.4627 42.776 21.5827 43.192 21.5827 43.72C21.5827 44.128 21.4747 44.512 21.2587 44.872C21.0427 45.232 20.7227 45.524 20.2987 45.748C19.8747 45.972 19.3747 46.084 18.7987 46.084ZM24.5216 40.324V44.2C24.5216 44.52 24.5896 44.748 24.7256 44.884C24.8616 45.012 25.0976 45.076 25.4336 45.076H26.2376V46H25.2536C24.6456 46 24.1896 45.86 23.8856 45.58C23.5816 45.3 23.4296 44.84 23.4296 44.2V40.324H22.5776V39.424H23.4296V37.768H24.5216V39.424H26.2376V40.324H24.5216ZM30.4287 46.108C29.8127 46.108 29.2527 45.968 28.7487 45.688C28.2527 45.408 27.8607 45.012 27.5727 44.5C27.2927 43.98 27.1527 43.38 27.1527 42.7C27.1527 42.028 27.2967 41.436 27.5847 40.924C27.8807 40.404 28.2807 40.008 28.7847 39.736C29.2887 39.456 29.8527 39.316 30.4767 39.316C31.1007 39.316 31.6647 39.456 32.1687 39.736C32.6727 40.008 33.0687 40.4 33.3567 40.912C33.6527 41.424 33.8007 42.02 33.8007 42.7C33.8007 43.38 33.6487 43.98 33.3447 44.5C33.0487 45.012 32.6447 45.408 32.1327 45.688C31.6207 45.968 31.0527 46.108 30.4287 46.108ZM30.4287 45.148C30.8207 45.148 31.1887 45.056 31.5327 44.872C31.8767 44.688 32.1527 44.412 32.3607 44.044C32.5767 43.676 32.6847 43.228 32.6847 42.7C32.6847 42.172 32.5807 41.724 32.3727 41.356C32.1647 40.988 31.8927 40.716 31.5567 40.54C31.2207 40.356 30.8567 40.264 30.4647 40.264C30.0647 40.264 29.6967 40.356 29.3607 40.54C29.0327 40.716 28.7687 40.988 28.5687 41.356C28.3687 41.724 28.2687 42.172 28.2687 42.7C28.2687 43.236 28.3647 43.688 28.5567 44.056C28.7567 44.424 29.0207 44.7 29.3487 44.884C29.6767 45.06 30.0367 45.148 30.4287 45.148ZM34.8285 42.7C34.8285 42.02 34.9645 41.428 35.2365 40.924C35.5085 40.412 35.8845 40.016 36.3645 39.736C36.8525 39.456 37.4085 39.316 38.0325 39.316C38.8405 39.316 39.5045 39.512 40.0245 39.904C40.5525 40.296 40.9005 40.84 41.0685 41.536H39.8925C39.7805 41.136 39.5605 40.82 39.2325 40.588C38.9125 40.356 38.5125 40.24 38.0325 40.24C37.4085 40.24 36.9045 40.456 36.5205 40.888C36.1365 41.312 35.9445 41.916 35.9445 42.7C35.9445 43.492 36.1365 44.104 36.5205 44.536C36.9045 44.968 37.4085 45.184 38.0325 45.184C38.5125 45.184 38.9125 45.072 39.2325 44.848C39.5525 44.624 39.7725 44.304 39.8925 43.888H41.0685C40.8925 44.56 40.5405 45.1 40.0125 45.508C39.4845 45.908 38.8245 46.108 38.0325 46.108C37.4085 46.108 36.8525 45.968 36.3645 45.688C35.8845 45.408 35.5085 45.012 35.2365 44.5C34.9645 43.988 34.8285 43.388 34.8285 42.7ZM46.1976 46L43.6176 43.096V46H42.5256V37.12H43.6176V42.34L46.1496 39.424H47.6736L44.5776 42.7L47.6856 46H46.1976Z" fill="white"/>
<path d="M23.94 14.9519C24.1901 14.5188 24.6523 14.2519 25.1525 14.2519L28.614 14.2519C29.1142 14.2519 29.5764 14.5188 29.8265 14.9519L31.5572 17.9497C31.8073 18.3829 31.8073 18.9166 31.5572 19.3497L29.8265 22.3475C29.5764 22.7807 29.1142 23.0475 28.614 23.0475L25.1525 23.0475C24.6523 23.0475 24.1901 22.7807 23.94 22.3475L22.2093 19.3497C21.9592 18.9166 21.9592 18.3829 22.2093 17.9497L23.94 14.9519Z" stroke="white" stroke-width="1.2"/>
<path d="M32.0193 10.1855C32.2694 9.7523 32.7315 9.48547 33.2317 9.48547L36.6932 9.48547C37.1934 9.48547 37.6556 9.7523 37.9057 10.1855L39.6364 13.1832C39.8865 13.6164 39.8865 14.1501 39.6364 14.5832L37.9057 17.581C37.6556 18.0142 37.1934 18.281 36.6932 18.281L33.2317 18.281C32.7315 18.281 32.2694 18.0142 32.0193 17.581L30.2885 14.5832C30.0384 14.1501 30.0384 13.6164 30.2885 13.1832L32.0193 10.1855Z" stroke="white" stroke-width="1.2"/>
<path d="M32.0191 19.7184C32.2692 19.2853 32.7314 19.0184 33.2316 19.0184L36.6931 19.0184C37.1933 19.0184 37.6555 19.2853 37.9056 19.7184L39.6363 22.7162C39.8864 23.1494 39.8864 23.683 39.6363 24.1162L37.9056 27.114C37.6555 27.5471 37.1933 27.814 36.6931 27.814L33.2316 27.814C32.7314 27.814 32.2692 27.5471 32.0191 27.114L30.2884 24.1162C30.0383 23.683 30.0383 23.1494 30.2884 22.7162L32.0191 19.7184Z" stroke="white" stroke-width="1.2"/>
<defs>
<filter id="filter0_d_172_5326" x="0" y="0" width="63" height="63" filterUnits="userSpaceOnUse" color-interpolation-filters="sRGB">
<feFlood flood-opacity="0" result="BackgroundImageFix"/>
<feColorMatrix in="SourceAlpha" type="matrix" values="0 0 0 0 0 0 0 0 0 0 0 0 0 0 0 0 0 0 127 0" result="hardAlpha"/>
<feOffset dy="4"/>
<feGaussianBlur stdDeviation="2"/>
<feComposite in2="hardAlpha" operator="out"/>
<feColorMatrix type="matrix" values="0 0 0 0 0 0 0 0 0 0 0 0 0 0 0 0 0 0 0.25 0"/>
<feBlend mode="normal" in2="BackgroundImageFix" result="effect1_dropShadow_172_5326"/>
<feBlend mode="normal" in="SourceGraphic" in2="effect1_dropShadow_172_5326" result="shape"/>
</filter>
</defs>
</svg>
