<svg width="33" height="45" viewBox="0 0 33 45" fill="none" xmlns="http://www.w3.org/2000/svg">
<path d="M3.79866 41.084C3.24666 41.084 2.75066 40.988 2.31066 40.796C1.87866 40.596 1.53866 40.324 1.29066 39.98C1.04266 39.628 0.914656 39.224 0.906656 38.768H2.07066C2.11066 39.16 2.27066 39.492 2.55066 39.764C2.83866 40.028 3.25466 40.16 3.79866 40.16C4.31866 40.16 4.72666 40.032 5.02266 39.776C5.32666 39.512 5.47866 39.176 5.47866 38.768C5.47866 38.448 5.39066 38.188 5.21466 37.988C5.03866 37.788 4.81866 37.636 4.55466 37.532C4.29066 37.428 3.93466 37.316 3.48666 37.196C2.93466 37.052 2.49066 36.908 2.15466 36.764C1.82666 36.62 1.54266 36.396 1.30266 36.092C1.07066 35.78 0.954656 35.364 0.954656 34.844C0.954656 34.388 1.07066 33.984 1.30266 33.632C1.53466 33.28 1.85866 33.008 2.27466 32.816C2.69866 32.624 3.18266 32.528 3.72666 32.528C4.51066 32.528 5.15066 32.724 5.64666 33.116C6.15066 33.508 6.43466 34.028 6.49866 34.676H5.29866C5.25866 34.356 5.09066 34.076 4.79466 33.836C4.49866 33.588 4.10666 33.464 3.61866 33.464C3.16266 33.464 2.79066 33.584 2.50266 33.824C2.21466 34.056 2.07066 34.384 2.07066 34.808C2.07066 35.112 2.15466 35.36 2.32266 35.552C2.49866 35.744 2.71066 35.892 2.95866 35.996C3.21466 36.092 3.57066 36.204 4.02666 36.332C4.57866 36.484 5.02266 36.636 5.35866 36.788C5.69466 36.932 5.98266 37.16 6.22266 37.472C6.46266 37.776 6.58266 38.192 6.58266 38.72C6.58266 39.128 6.47466 39.512 6.25866 39.872C6.04266 40.232 5.72266 40.524 5.29866 40.748C4.87466 40.972 4.37466 41.084 3.79866 41.084ZM9.52163 35.324V39.2C9.52163 39.52 9.58963 39.748 9.72563 39.884C9.86163 40.012 10.0976 40.076 10.4336 40.076H11.2376V41H10.2536C9.64563 41 9.18963 40.86 8.88563 40.58C8.58163 40.3 8.42963 39.84 8.42963 39.2V35.324H7.57763V34.424H8.42963V32.768H9.52163V34.424H11.2376V35.324H9.52163ZM15.4287 41.108C14.8127 41.108 14.2527 40.968 13.7487 40.688C13.2527 40.408 12.8607 40.012 12.5727 39.5C12.2927 38.98 12.1527 38.38 12.1527 37.7C12.1527 37.028 12.2967 36.436 12.5847 35.924C12.8807 35.404 13.2807 35.008 13.7847 34.736C14.2887 34.456 14.8527 34.316 15.4767 34.316C16.1007 34.316 16.6647 34.456 17.1687 34.736C17.6727 35.008 18.0687 35.4 18.3567 35.912C18.6527 36.424 18.8007 37.02 18.8007 37.7C18.8007 38.38 18.6487 38.98 18.3447 39.5C18.0487 40.012 17.6447 40.408 17.1327 40.688C16.6207 40.968 16.0527 41.108 15.4287 41.108ZM15.4287 40.148C15.8207 40.148 16.1887 40.056 16.5327 39.872C16.8767 39.688 17.1527 39.412 17.3607 39.044C17.5767 38.676 17.6847 38.228 17.6847 37.7C17.6847 37.172 17.5807 36.724 17.3727 36.356C17.1647 35.988 16.8927 35.716 16.5567 35.54C16.2207 35.356 15.8567 35.264 15.4647 35.264C15.0647 35.264 14.6967 35.356 14.3607 35.54C14.0327 35.716 13.7687 35.988 13.5687 36.356C13.3687 36.724 13.2687 37.172 13.2687 37.7C13.2687 38.236 13.3647 38.688 13.5567 39.056C13.7567 39.424 14.0207 39.7 14.3487 39.884C14.6767 40.06 15.0367 40.148 15.4287 40.148ZM19.8285 37.7C19.8285 37.02 19.9645 36.428 20.2365 35.924C20.5085 35.412 20.8845 35.016 21.3645 34.736C21.8525 34.456 22.4085 34.316 23.0325 34.316C23.8405 34.316 24.5045 34.512 25.0245 34.904C25.5525 35.296 25.9005 35.84 26.0685 36.536H24.8925C24.7805 36.136 24.5605 35.82 24.2325 35.588C23.9125 35.356 23.5125 35.24 23.0325 35.24C22.4085 35.24 21.9045 35.456 21.5205 35.888C21.1365 36.312 20.9445 36.916 20.9445 37.7C20.9445 38.492 21.1365 39.104 21.5205 39.536C21.9045 39.968 22.4085 40.184 23.0325 40.184C23.5125 40.184 23.9125 40.072 24.2325 39.848C24.5525 39.624 24.7725 39.304 24.8925 38.888H26.0685C25.8925 39.56 25.5405 40.1 25.0125 40.508C24.4845 40.908 23.8245 41.108 23.0325 41.108C22.4085 41.108 21.8525 40.968 21.3645 40.688C20.8845 40.408 20.5085 40.012 20.2365 39.5C19.9645 38.988 19.8285 38.388 19.8285 37.7ZM31.1976 41L28.6176 38.096V41H27.5256V32.12H28.6176V37.34L31.1496 34.424H32.6736L29.5776 37.7L32.6856 41H31.1976Z" fill="#20BFAA"/>
<path d="M8.94004 9.95195C9.19013 9.51878 9.65231 9.25195 10.1525 9.25195L13.614 9.25195C14.1142 9.25195 14.5764 9.51878 14.8265 9.95195L16.5572 12.9497C16.8073 13.3829 16.8073 13.9166 16.5572 14.3497L14.8265 17.3475C14.5764 17.7807 14.1142 18.0475 13.614 18.0475L10.1525 18.0475C9.65231 18.0475 9.19013 17.7807 8.94004 17.3475L7.20928 14.3497C6.95919 13.9166 6.95919 13.3829 7.20928 12.9497L8.94004 9.95195Z" stroke="#20BFAA" stroke-width="1.2"/>
<path d="M17.0193 5.18547C17.2694 4.7523 17.7315 4.48547 18.2317 4.48547L21.6932 4.48547C22.1934 4.48547 22.6556 4.7523 22.9057 5.18547L24.6364 8.18324C24.8865 8.61641 24.8865 9.15009 24.6364 9.58325L22.9057 12.581C22.6556 13.0142 22.1934 13.281 21.6932 13.281L18.2317 13.281C17.7315 13.281 17.2694 13.0142 17.0193 12.581L15.2885 9.58325C15.0384 9.15008 15.0384 8.61641 15.2885 8.18325L17.0193 5.18547Z" stroke="#20BFAA" stroke-width="1.2"/>
<path d="M17.0191 14.7184C17.2692 14.2853 17.7314 14.0184 18.2316 14.0184L21.6931 14.0184C22.1933 14.0184 22.6555 14.2853 22.9056 14.7184L24.6363 17.7162C24.8864 18.1494 24.8864 18.683 24.6363 19.1162L22.9056 22.114C22.6555 22.5471 22.1933 22.814 21.6931 22.814L18.2316 22.814C17.7314 22.814 17.2692 22.5471 17.0191 22.114L15.2884 19.1162C15.0383 18.683 15.0383 18.1494 15.2884 17.7162L17.0191 14.7184Z" stroke="#20BFAA" stroke-width="1.2"/>
</svg>
