<svg width="21" height="22" viewBox="0 0 21 22" fill="none" xmlns="http://www.w3.org/2000/svg">
<path d="M1.15381 5.57211H19.6153" stroke="#000001" stroke-width="2" stroke-linecap="round" stroke-linejoin="round"/>
<path d="M3.46143 5.57211H17.3076V19.2889C17.3076 19.6931 17.1455 20.0807 16.857 20.3666C16.5685 20.6524 16.1771 20.8129 15.7691 20.8129H4.99989C4.59186 20.8129 4.20055 20.6524 3.91203 20.3666C3.62351 20.0807 3.46143 19.6931 3.46143 19.2889V5.57211Z" stroke="#000001" stroke-width="2" stroke-linecap="round" stroke-linejoin="round"/>
<path d="M6.53833 5.57225V4.81021C6.53833 3.79968 6.94355 2.83054 7.66484 2.11598C8.38614 1.40143 9.36442 1 10.3845 1C11.4045 1 12.3828 1.40143 13.1041 2.11598C13.8254 2.83054 14.2306 3.79968 14.2306 4.81021V5.57225" stroke="#000001" stroke-width="2" stroke-linecap="round" stroke-linejoin="round"/>
</svg>
